<svg  width="1294" height="1006" viewBox="0 0 1294 1006"  xmlns="http://www.w3.org/2000/svg">
<g id="Fits" >
<path id="Vector_5" d="M80.0046 319.8L104.715 362.6H154.135L178.845 319.8L154.135 277H104.715L80.0046 319.8Z"  stroke="#B1CBDA"/>
<g >
<path class="aaa"  d="M128.476 283.763C125.912 283.83 123.415 284.164 121.012 284.738L122.978 292.074C124.753 291.663 126.591 291.418 128.476 291.356V283.763Z" />
<path class="aaa" d="M135.872 292.074C134.097 291.663 132.258 291.418 130.373 291.356V283.763C132.937 283.83 135.434 284.164 137.837 284.738L135.872 292.074Z" />
<path d="M142.828 294.688C141.207 293.821 139.493 293.107 137.705 292.564L139.67 285.228C142.106 285.949 144.434 286.92 146.625 288.111L142.828 294.688Z" />
<path d="M148.867 299.016C147.518 297.754 146.045 296.621 144.47 295.638L148.267 289.062C150.416 290.382 152.416 291.921 154.235 293.648L148.867 299.016Z" />
<path d="M153.587 304.755C152.604 303.179 151.471 301.707 150.208 300.358L155.577 294.989C157.304 296.809 158.843 298.809 160.163 300.958L153.587 304.755Z" />
<path d="M156.661 311.52C156.118 309.731 155.403 308.017 154.537 306.397L161.113 302.6C162.305 304.791 163.276 307.119 163.997 309.554L156.661 311.52Z" />
<path d="M157.869 318.851C157.807 316.967 157.562 315.128 157.151 313.353L164.486 311.387C165.061 313.791 165.395 316.288 165.461 318.851H157.869Z" />
<path d="M157.151 326.247C157.562 324.472 157.807 322.634 157.869 320.749H165.461C165.395 323.312 165.061 325.809 164.486 328.213L157.151 326.247Z" />
<path d="M154.537 333.203C155.403 331.583 156.118 329.869 156.661 328.08L163.996 330.046C163.276 332.481 162.305 334.809 161.113 337L154.537 333.203Z" />
<path d="M150.208 339.242C151.471 337.893 152.604 336.421 153.587 334.845L160.163 338.642C158.843 340.791 157.304 342.791 155.577 344.611L150.208 339.242Z" />
<path d="M144.47 343.962C146.045 342.979 147.518 341.846 148.867 340.584L154.235 345.952C152.416 347.679 150.416 349.218 148.267 350.538L144.47 343.962Z" />
<path d="M137.705 347.036C139.493 346.493 141.207 345.779 142.828 344.912L146.625 351.489C144.434 352.68 142.106 353.651 139.67 354.372L137.705 347.036Z" />
<path d="M130.373 348.244C132.258 348.182 134.097 347.937 135.872 347.526L137.837 354.862C135.434 355.436 132.937 355.77 130.373 355.836V348.244Z" />
<path d="M122.978 347.526C124.753 347.937 126.591 348.182 128.476 348.244V355.836C125.912 355.77 123.416 355.436 121.012 354.862L122.978 347.526Z" />
<path d="M116.022 344.912C117.642 345.779 119.356 346.493 121.145 347.036L119.179 354.372C116.744 353.651 114.415 352.68 112.225 351.489L116.022 344.912Z" />
<path d="M109.983 340.584C111.332 341.846 112.804 342.979 114.379 343.962L110.582 350.538C108.434 349.218 106.434 347.679 104.614 345.952L109.983 340.584Z" />
<path d="M105.263 334.845C106.246 336.421 107.378 337.893 108.641 339.242L103.272 344.611C101.545 342.791 100.006 340.791 98.6862 338.642L105.263 334.845Z" />
<path d="M102.188 328.08C102.731 329.869 103.446 331.583 104.313 333.203L97.7361 337C96.5444 334.809 95.5734 332.481 94.8527 330.046L102.188 328.08Z" />
<path d="M100.981 320.749C101.042 322.634 101.287 324.472 101.699 326.247L94.3627 328.213C93.7882 325.809 93.4543 323.312 93.3881 320.749H100.981Z" />
<path d="M101.698 313.353C101.287 315.128 101.042 316.967 100.981 318.851H93.3881C93.4543 316.288 93.7881 313.791 94.3627 311.387L101.698 313.353Z" />
<path d="M104.313 306.397C103.446 308.017 102.731 309.731 102.188 311.52L94.8526 309.554C95.5733 307.119 96.5443 304.791 97.736 302.6L104.313 306.397Z" />
<path d="M108.641 300.358C107.378 301.707 106.246 303.179 105.263 304.755L98.6861 300.958C100.006 298.809 101.545 296.809 103.272 294.989L108.641 300.358Z" />
<path d="M114.379 295.638C112.804 296.621 111.332 297.754 109.983 299.016L104.614 293.648C106.434 291.921 108.434 290.382 110.582 289.062L114.379 295.638Z" />
<path d="M121.145 292.564C119.356 293.107 117.642 293.821 116.022 294.688L112.225 288.111C114.415 286.92 116.743 285.949 119.179 285.228L121.145 292.564Z" />
</g>
<g id="Vector_6">
<path d="M85.6255 322.205L80.5372 319.8L105.2 362.541H106.669L96.6102 345.609L97.0411 342.654L85.6255 322.205Z" />
<path d="M153.366 356.523L153.827 362.132L178.51 319.403L177.776 318.131L168.142 335.308L165.367 336.413L153.366 356.523Z" />
<path d="M149.234 280.71L153.861 277.506L104.515 277.495L103.78 278.767L123.474 278.522L125.817 280.372L149.234 280.71Z" />
</g>
<g id="Vector_7">
<path d="M147.442 303H150.005V318H147.442V303Z" />
<path d="M109.005 318H111.567V333H109.005V318Z" />
<path d="M121.817 323.625H150.005V327.375H121.817V332.062L112.848 325.5L121.817 318.938V323.625Z" />
<path d="M137.192 312.375H109.005V308.625H137.192V303.938L146.161 310.5L137.192 317.062V312.375Z" />
<path d="M147.442 303H150.005V318H147.442V303Z" stroke="#B1CBDA"/>
<path d="M109.005 318H111.567V333H109.005V318Z" stroke="#B1CBDA"/>
<path d="M121.817 323.625H150.005V327.375H121.817V332.062L112.848 325.5L121.817 318.938V323.625Z" stroke="#B1CBDA"/>
<path d="M137.192 312.375H109.005V308.625H137.192V303.938L146.161 310.5L137.192 317.062V312.375Z" stroke="#B1CBDA"/>
</g>
</g>



</svg>
