<svg width="1292" height="1006" viewBox="0 0 1292 1006" fill="none" xmlns="http://www.w3.org/2000/svg">
<rect width="1292" height="1006" fill="#E5E5E5"/>
<g id="Vector">
<g id="Vector_2">
<path d="M1138.71 866.6L1114 823.8L1138.71 781H1188.13L1212.84 823.8L1188.13 866.6H1138.71ZM1138.71 866.6L1114 823.8L1138.71 781H1188.13L1212.84 823.8L1188.13 866.6H1138.71ZM1138.71 866.6L1114 823.8L1138.71 781H1188.13L1212.84 823.8L1188.13 866.6H1138.71ZM1138.71 866.6L1114 823.8L1138.71 781H1188.13L1212.84 823.8L1188.13 866.6H1138.71ZM1138.71 866.6L1114 823.8L1138.71 781H1188.13L1212.84 823.8L1188.13 866.6H1138.71ZM1138.71 866.6L1114 823.8L1138.71 781H1188.13L1212.84 823.8L1188.13 866.6H1138.71ZM1138.71 866.6L1114 823.8L1138.71 781H1188.13L1212.84 823.8L1188.13 866.6H1138.71ZM1138.71 866.6L1114 823.8L1138.71 781H1188.13L1212.84 823.8L1188.13 866.6H1138.71ZM1138.71 866.6L1114 823.8L1138.71 781H1188.13L1212.84 823.8L1188.13 866.6H1138.71ZM1138.71 866.6L1114 823.8L1138.71 781H1188.13L1212.84 823.8L1188.13 866.6H1138.71ZM1138.71 866.6L1114 823.8L1138.71 781H1188.13L1212.84 823.8L1188.13 866.6H1138.71ZM1138.71 866.6L1114 823.8L1138.71 781H1188.13L1212.84 823.8L1188.13 866.6H1138.71ZM1138.71 866.6L1114 823.8L1138.71 781H1188.13L1212.84 823.8L1188.13 866.6H1138.71ZM1138.71 866.6L1114 823.8L1138.71 781H1188.13L1212.84 823.8L1188.13 866.6H1138.71ZM1138.71 866.6L1114 823.8L1138.71 781H1188.13L1212.84 823.8L1188.13 866.6H1138.71ZM1138.71 866.6L1114 823.8L1138.71 781H1188.13L1212.84 823.8L1188.13 866.6H1138.71ZM1138.71 866.6L1114 823.8L1138.71 781H1188.13L1212.84 823.8L1188.13 866.6H1138.71ZM1138.71 866.6L1114 823.8L1138.71 781H1188.13L1212.84 823.8L1188.13 866.6H1138.71ZM1138.71 866.6L1114 823.8L1138.71 781H1188.13L1212.84 823.8L1188.13 866.6H1138.71ZM1138.71 866.6L1114 823.8L1138.71 781H1188.13L1212.84 823.8L1188.13 866.6H1138.71ZM1138.71 866.6L1114 823.8L1138.71 781H1188.13L1212.84 823.8L1188.13 866.6H1138.71ZM1138.71 866.6L1114 823.8L1138.71 781H1188.13L1212.84 823.8L1188.13 866.6H1138.71ZM1138.71 866.6L1114 823.8L1138.71 781H1188.13L1212.84 823.8L1188.13 866.6H1138.71ZM1138.71 866.6L1114 823.8L1138.71 781H1188.13L1212.84 823.8L1188.13 866.6H1138.71ZM1138.71 866.6L1114 823.8L1138.71 781H1188.13L1212.84 823.8L1188.13 866.6H1138.71ZM1138.71 866.6L1114 823.8L1138.71 781H1188.13L1212.84 823.8L1188.13 866.6H1138.71ZM1138.71 866.6L1114 823.8L1138.71 781H1188.13L1212.84 823.8L1188.13 866.6H1138.71ZM1138.71 866.6L1114 823.8L1138.71 781H1188.13L1212.84 823.8L1188.13 866.6H1138.71ZM1138.71 866.6L1114 823.8L1138.71 781H1188.13L1212.84 823.8L1188.13 866.6H1138.71ZM1138.71 866.6L1114 823.8L1138.71 781H1188.13L1212.84 823.8L1188.13 866.6H1138.71ZM1138.71 866.6L1114 823.8L1138.71 781H1188.13L1212.84 823.8L1188.13 866.6H1138.71ZM1138.71 866.6L1114 823.8L1138.71 781H1188.13L1212.84 823.8L1188.13 866.6H1138.71ZM1138.71 866.6L1114 823.8L1138.71 781H1188.13L1212.84 823.8L1188.13 866.6H1138.71ZM1138.71 866.6L1114 823.8L1138.71 781H1188.13L1212.84 823.8L1188.13 866.6H1138.71ZM1138.71 866.6L1114 823.8L1138.71 781H1188.13L1212.84 823.8L1188.13 866.6H1138.71ZM1138.71 866.6L1114 823.8L1138.71 781H1188.13L1212.84 823.8L1188.13 866.6H1138.71ZM1138.71 866.6L1114 823.8L1138.71 781H1188.13L1212.84 823.8L1188.13 866.6H1138.71ZM1138.71 866.6L1114 823.8L1138.71 781H1188.13L1212.84 823.8L1188.13 866.6H1138.71ZM1138.71 866.6L1114 823.8L1138.71 781H1188.13L1212.84 823.8L1188.13 866.6H1138.71ZM1138.71 866.6L1114 823.8L1138.71 781H1188.13L1212.84 823.8L1188.13 866.6H1138.71ZM1138.71 866.6L1114 823.8L1138.71 781H1188.13L1212.84 823.8L1188.13 866.6H1138.71ZM1138.71 866.6L1114 823.8L1138.71 781H1188.13L1212.84 823.8L1188.13 866.6H1138.71ZM1138.71 866.6L1114 823.8L1138.71 781H1188.13L1212.84 823.8L1188.13 866.6H1138.71ZM1138.71 866.6L1114 823.8L1138.71 781H1188.13L1212.84 823.8L1188.13 866.6H1138.71ZM1138.71 866.6L1114 823.8L1138.71 781H1188.13L1212.84 823.8L1188.13 866.6H1138.71ZM1138.71 866.6L1114 823.8L1138.71 781H1188.13L1212.84 823.8L1188.13 866.6H1138.71ZM1138.71 866.6L1114 823.8L1138.71 781H1188.13L1212.84 823.8L1188.13 866.6H1138.71ZM1138.71 866.6L1114 823.8L1138.71 781H1188.13L1212.84 823.8L1188.13 866.6H1138.71ZM1138.71 866.6L1114 823.8L1138.71 781H1188.13L1212.84 823.8L1188.13 866.6H1138.71ZM1138.71 866.6L1114 823.8L1138.71 781H1188.13L1212.84 823.8L1188.13 866.6H1138.71ZM1138.71 866.6L1114 823.8L1138.71 781H1188.13L1212.84 823.8L1188.13 866.6H1138.71ZM1138.71 866.6L1114 823.8L1138.71 781H1188.13L1212.84 823.8L1188.13 866.6H1138.71ZM1138.71 866.6L1114 823.8L1138.71 781H1188.13L1212.84 823.8L1188.13 866.6H1138.71ZM1138.71 866.6L1114 823.8L1138.71 781H1188.13L1212.84 823.8L1188.13 866.6H1138.71ZM1138.71 866.6L1114 823.8L1138.71 781H1188.13L1212.84 823.8L1188.13 866.6H1138.71ZM1138.71 866.6L1114 823.8L1138.71 781H1188.13L1212.84 823.8L1188.13 866.6H1138.71ZM1138.71 866.6L1114 823.8L1138.71 781H1188.13L1212.84 823.8L1188.13 866.6H1138.71ZM1138.71 866.6L1114 823.8L1138.71 781H1188.13L1212.84 823.8L1188.13 866.6H1138.71ZM1138.71 866.6L1114 823.8L1138.71 781H1188.13L1212.84 823.8L1188.13 866.6H1138.71ZM1138.71 866.6L1114 823.8L1138.71 781H1188.13L1212.84 823.8L1188.13 866.6H1138.71ZM1138.71 866.6L1114 823.8L1138.71 781H1188.13L1212.84 823.8L1188.13 866.6H1138.71ZM1138.71 866.6L1114 823.8L1138.71 781H1188.13L1212.84 823.8L1188.13 866.6H1138.71ZM1138.71 866.6L1114 823.8L1138.71 781H1188.13L1212.84 823.8L1188.13 866.6H1138.71ZM1138.71 866.6L1114 823.8L1138.71 781H1188.13L1212.84 823.8L1188.13 866.6H1138.71ZM1138.71 866.6L1114 823.8L1138.71 781H1188.13L1212.84 823.8L1188.13 866.6H1138.71ZM1138.71 866.6L1114 823.8L1138.71 781H1188.13L1212.84 823.8L1188.13 866.6H1138.71ZM1138.71 866.6L1114 823.8L1138.71 781H1188.13L1212.84 823.8L1188.13 866.6H1138.71ZM1138.71 866.6L1114 823.8L1138.71 781H1188.13L1212.84 823.8L1188.13 866.6H1138.71ZM1138.71 866.6L1114 823.8L1138.71 781H1188.13L1212.84 823.8L1188.13 866.6H1138.71ZM1138.71 866.6L1114 823.8L1138.71 781H1188.13L1212.84 823.8L1188.13 866.6H1138.71ZM1138.71 866.6L1114 823.8L1138.71 781H1188.13L1212.84 823.8L1188.13 866.6H1138.71ZM1138.71 866.6L1114 823.8L1138.71 781H1188.13L1212.84 823.8L1188.13 866.6H1138.71ZM1138.71 866.6L1114 823.8L1138.71 781H1188.13L1212.84 823.8L1188.13 866.6H1138.71ZM1138.71 866.6L1114 823.8L1138.71 781H1188.13L1212.84 823.8L1188.13 866.6H1138.71ZM1138.71 866.6L1114 823.8L1138.71 781H1188.13L1212.84 823.8L1188.13 866.6H1138.71ZM1138.71 866.6L1114 823.8L1138.71 781H1188.13L1212.84 823.8L1188.13 866.6H1138.71ZM1138.71 866.6L1114 823.8L1138.71 781H1188.13L1212.84 823.8L1188.13 866.6H1138.71ZM1138.71 866.6L1114 823.8L1138.71 781H1188.13L1212.84 823.8L1188.13 866.6H1138.71ZM1138.71 866.6L1114 823.8L1138.71 781H1188.13L1212.84 823.8L1188.13 866.6H1138.71ZM1138.71 866.6L1114 823.8L1138.71 781H1188.13L1212.84 823.8L1188.13 866.6H1138.71ZM1138.71 866.6L1114 823.8L1138.71 781H1188.13L1212.84 823.8L1188.13 866.6H1138.71ZM1138.71 866.6L1114 823.8L1138.71 781H1188.13L1212.84 823.8L1188.13 866.6H1138.71ZM1138.71 866.6L1114 823.8L1138.71 781H1188.13L1212.84 823.8L1188.13 866.6H1138.71ZM1138.71 866.6L1114 823.8L1138.71 781H1188.13L1212.84 823.8L1188.13 866.6H1138.71ZM1138.71 866.6L1114 823.8L1138.71 781H1188.13L1212.84 823.8L1188.13 866.6H1138.71ZM1138.71 866.6L1114 823.8L1138.71 781H1188.13L1212.84 823.8L1188.13 866.6H1138.71ZM1138.71 866.6L1114 823.8L1138.71 781H1188.13L1212.84 823.8L1188.13 866.6H1138.71ZM1138.71 866.6L1114 823.8L1138.71 781H1188.13L1212.84 823.8L1188.13 866.6H1138.71ZM1138.71 866.6L1114 823.8L1138.71 781H1188.13L1212.84 823.8L1188.13 866.6H1138.71ZM1138.71 866.6L1114 823.8L1138.71 781H1188.13L1212.84 823.8L1188.13 866.6H1138.71ZM1138.71 866.6L1114 823.8L1138.71 781H1188.13L1212.84 823.8L1188.13 866.6H1138.71ZM1138.71 866.6L1114 823.8L1138.71 781H1188.13L1212.84 823.8L1188.13 866.6H1138.71ZM1138.71 866.6L1114 823.8L1138.71 781H1188.13L1212.84 823.8L1188.13 866.6H1138.71ZM1138.71 866.6L1114 823.8L1138.71 781H1188.13L1212.84 823.8L1188.13 866.6H1138.71ZM1138.71 866.6L1114 823.8L1138.71 781H1188.13L1212.84 823.8L1188.13 866.6H1138.71ZM1138.71 866.6L1114 823.8L1138.71 781H1188.13L1212.84 823.8L1188.13 866.6H1138.71ZM1138.71 866.6L1114 823.8L1138.71 781H1188.13L1212.84 823.8L1188.13 866.6H1138.71ZM1138.71 866.6L1114 823.8L1138.71 781H1188.13L1212.84 823.8L1188.13 866.6H1138.71ZM1138.71 866.6L1114 823.8L1138.71 781H1188.13L1212.84 823.8L1188.13 866.6H1138.71ZM1138.71 866.6L1114 823.8L1138.71 781H1188.13L1212.84 823.8L1188.13 866.6H1138.71ZM1138.71 866.6L1114 823.8L1138.71 781H1188.13L1212.84 823.8L1188.13 866.6H1138.71ZM1138.71 866.6L1114 823.8L1138.71 781H1188.13L1212.84 823.8L1188.13 866.6H1138.71ZM1138.71 866.6L1114 823.8L1138.71 781H1188.13L1212.84 823.8L1188.13 866.6H1138.71ZM1138.71 866.6L1114 823.8L1138.71 781H1188.13L1212.84 823.8L1188.13 866.6H1138.71ZM1138.71 866.6L1114 823.8L1138.71 781H1188.13L1212.84 823.8L1188.13 866.6H1138.71ZM1138.71 866.6L1114 823.8L1138.71 781H1188.13L1212.84 823.8L1188.13 866.6H1138.71ZM1138.71 866.6L1114 823.8L1138.71 781H1188.13L1212.84 823.8L1188.13 866.6H1138.71ZM1138.71 866.6L1114 823.8L1138.71 781H1188.13L1212.84 823.8L1188.13 866.6H1138.71ZM1138.71 866.6L1114 823.8L1138.71 781H1188.13L1212.84 823.8L1188.13 866.6H1138.71ZM1138.71 866.6L1114 823.8L1138.71 781H1188.13L1212.84 823.8L1188.13 866.6H1138.71ZM1138.71 866.6L1114 823.8L1138.71 781H1188.13L1212.84 823.8L1188.13 866.6H1138.71ZM1138.71 866.6L1114 823.8L1138.71 781H1188.13L1212.84 823.8L1188.13 866.6H1138.71ZM1138.71 866.6L1114 823.8L1138.71 781H1188.13L1212.84 823.8L1188.13 866.6H1138.71ZM1138.71 866.6L1114 823.8L1138.71 781H1188.13L1212.84 823.8L1188.13 866.6H1138.71ZM1138.71 866.6L1114 823.8L1138.71 781H1188.13L1212.84 823.8L1188.13 866.6H1138.71ZM1138.71 866.6L1114 823.8L1138.71 781H1188.13L1212.84 823.8L1188.13 866.6H1138.71ZM1138.71 866.6L1114 823.8L1138.71 781H1188.13L1212.84 823.8L1188.13 866.6H1138.71ZM1138.71 866.6L1114 823.8L1138.71 781H1188.13L1212.84 823.8L1188.13 866.6H1138.71ZM1138.71 866.6L1114 823.8L1138.71 781H1188.13L1212.84 823.8L1188.13 866.6H1138.71ZM1138.71 866.6L1114 823.8L1138.71 781H1188.13L1212.84 823.8L1188.13 866.6H1138.71Z" fill="black"/>
<path d="M1138.71 866.6L1114 823.8L1138.71 781H1188.13L1212.84 823.8L1188.13 866.6H1138.71Z" stroke="black"/>
</g>
<path id="Vector_3" d="M717 136.8L741.71 179.6H791.13L815.84 136.8L791.13 94H741.71L717 136.8Z" fill="black" stroke="black"/>
<path id="Vector_4" d="M558 136.8L582.71 179.6H632.13L656.84 136.8L632.13 94H582.71L558 136.8Z" fill="black" stroke="black"/>
<path id="Vector_5" d="M1036 868.8L1060.71 911.6H1110.13L1134.84 868.8L1110.13 826H1060.71L1036 868.8Z" fill="black" stroke="black"/>
<path id="Vector_6" d="M877 868.8L901.71 911.6H951.13L975.84 868.8L951.13 826H901.71L877 868.8Z" fill="black" stroke="black"/>
<path id="Vector_7" d="M399 136.8L423.71 179.6H473.13L497.84 136.8L473.13 94H423.71L399 136.8Z" fill="black" stroke="black"/>
<path id="Vector_8" d="M240 136.8L264.71 179.6H314.13L338.84 136.8L314.13 94H264.71L240 136.8Z" fill="black" stroke="black"/>
<path id="Vector_9" d="M81 136.8L105.71 179.6H155.13L179.84 136.8L155.13 94H105.71L81 136.8Z" fill="black" stroke="black"/>
<path id="Vector_10" d="M1036 136.8L1060.71 179.6H1110.13L1134.84 136.8L1110.13 94H1060.71L1036 136.8Z" fill="black" stroke="black"/>
<path id="Vector_11" d="M877 136.8L901.71 179.6H951.13L975.84 136.8L951.13 94H901.71L877 136.8Z" fill="black" stroke="black"/>
<path id="Vector_12" d="M956 89.8L980.71 132.6H1030.13L1054.84 89.8L1030.13 47H980.71L956 89.8Z" fill="black" stroke="black"/>
<path id="Vector_13" d="M797 89.8L821.71 132.6H871.13L895.84 89.8L871.13 47H821.71L797 89.8Z" fill="black" stroke="black"/>
<path id="Vector_14" d="M638 89.8L662.71 132.6H712.13L736.84 89.8L712.13 47H662.71L638 89.8Z" fill="black" stroke="black"/>
<path id="Vector_15" d="M1035 962.8L1059.71 1005.6H1109.13L1133.84 962.8L1109.13 920H1059.71L1035 962.8Z" fill="black" stroke="black"/>
<path id="Vector_16" d="M876 962.8L900.71 1005.6H950.13L974.84 962.8L950.13 920H900.71L876 962.8Z" fill="black" stroke="black"/>
<path id="Vector_17" d="M717 962.8L741.71 1005.6H791.13L815.84 962.8L791.13 920H741.71L717 962.8Z" fill="black" stroke="black"/>
<path id="Vector_18" d="M1035 42.8L1059.71 85.6H1109.13L1133.84 42.8L1109.13 0H1059.71L1035 42.8Z" fill="black" stroke="black"/>
<path id="Vector_19" d="M876 42.8L900.71 85.6H950.13L974.84 42.8L950.13 0H900.71L876 42.8Z" fill="black" stroke="black"/>
<path id="Vector_20" d="M717 42.8L741.71 85.6H791.13L815.84 42.8L791.13 0H741.71L717 42.8Z" fill="black" stroke="black"/>
<path id="Vector_21" d="M479 89.8L503.71 132.6H553.13L577.84 89.8L553.13 47H503.71L479 89.8Z" fill="black" stroke="black"/>
<path id="Vector_22" d="M320 89.8L344.71 132.6H394.13L418.84 89.8L394.13 47H344.71L320 89.8Z" fill="black" stroke="black"/>
<path id="Vector_23" d="M956 915.8L980.71 958.6H1030.13L1054.84 915.8L1030.13 873H980.71L956 915.8Z" fill="black" stroke="black"/>
<path id="Vector_24" d="M797 915.8L821.71 958.6H871.13L895.84 915.8L871.13 873H821.71L797 915.8Z" fill="black" stroke="black"/>
<path id="Vector_25" d="M638 915.8L662.71 958.6H712.13L736.84 915.8L712.13 873H662.71L638 915.8Z" fill="black" stroke="black"/>
<path id="Vector_26" d="M479 915.8L503.71 958.6H553.13L577.84 915.8L553.13 873H503.71L479 915.8Z" fill="black" stroke="black"/>
<path id="Vector_27" d="M320 915.8L344.71 958.6H394.13L418.84 915.8L394.13 873H344.71L320 915.8Z" fill="black" stroke="black"/>
<path id="Vector_28" d="M717 868.8L741.71 911.6H791.13L815.84 868.8L791.13 826H741.71L717 868.8Z" fill="black" stroke="black"/>
<path id="Vector_29" d="M558 868.8L582.71 911.6H632.13L656.84 868.8L632.13 826H582.71L558 868.8Z" fill="black" stroke="black"/>
<path id="Vector_30" d="M399 868.8L423.71 911.6H473.13L497.84 868.8L473.13 826H423.71L399 868.8Z" fill="black" stroke="black"/>
<path id="Vector_31" d="M240 868.8L264.71 911.6H314.13L338.84 868.8L314.13 826H264.71L240 868.8Z" fill="black" stroke="black"/>
<path id="Vector_32" d="M81 868.8L105.71 911.6H155.13L179.84 868.8L155.13 826H105.71L81 868.8Z" fill="black" stroke="black"/>
<path id="Vector_33" d="M955 823.8L979.71 866.6H1029.13L1053.84 823.8L1029.13 781H979.71L955 823.8Z" fill="black" stroke="black"/>
<path id="Vector_34" d="M796 823.8L820.71 866.6H870.13L894.84 823.8L870.13 781H820.71L796 823.8Z" fill="black" stroke="black"/>
<path id="Vector_35" d="M637 823.8L661.71 866.6H711.13L735.84 823.8L711.13 781H661.71L637 823.8Z" fill="black" stroke="black"/>
<path id="Vector_36" d="M478 823.8L502.71 866.6H552.13L576.84 823.8L552.13 781H502.71L478 823.8Z" fill="black" stroke="black"/>
<path id="Vector_37" d="M319 823.8L343.71 866.6H393.13L417.84 823.8L393.13 781H343.71L319 823.8Z" fill="black" stroke="black"/>
<path id="Vector_38" d="M160 823.8L184.71 866.6H234.13L258.84 823.8L234.13 781H184.71L160 823.8Z" fill="black" stroke="black"/>
<path id="Vector_39" d="M1 823.8L25.71 866.6H75.13L99.84 823.8L75.13 781H25.71L1 823.8Z" fill="black" stroke="black"/>
<path id="Vector_40" d="M1193 777.8L1217.71 820.6H1267.13L1291.84 777.8L1267.13 735H1217.71L1193 777.8Z" fill="black" stroke="black"/>
<path id="Vector_41" d="M1035 777.8L1059.71 820.6H1109.13L1133.84 777.8L1109.13 735H1059.71L1035 777.8Z" fill="black" stroke="black"/>
<path id="Vector_42" d="M876 777.8L900.71 820.6H950.13L974.84 777.8L950.13 735H900.71L876 777.8Z" fill="black" stroke="black"/>
<path id="Vector_43" d="M717 777.8L741.71 820.6H791.13L815.84 777.8L791.13 735H741.71L717 777.8Z" fill="black" stroke="black"/>
<path id="Vector_44" d="M557 777.8L581.71 820.6H631.13L655.84 777.8L631.13 735H581.71L557 777.8Z" fill="black" stroke="black"/>
<path id="Vector_45" d="M398 777.8L422.71 820.6H472.13L496.84 777.8L472.13 735H422.71L398 777.8Z" fill="black" stroke="black"/>
<path id="Vector_46" d="M240 777.8L264.71 820.6H314.13L338.84 777.8L314.13 735H264.71L240 777.8Z" fill="black" stroke="black"/>
<path id="Vector_47" d="M81 777.8L105.71 820.6H155.13L179.84 777.8L155.13 735H105.71L81 777.8Z" fill="black" stroke="black"/>
<path id="Vector_48" d="M1114 731.8L1138.71 774.6H1188.13L1212.84 731.8L1188.13 689H1138.71L1114 731.8Z" fill="black" stroke="black"/>
<path id="Vector_49" d="M955 731.8L979.71 774.6H1029.13L1053.84 731.8L1029.13 689H979.71L955 731.8Z" fill="black" stroke="black"/>
<path id="Vector_50" d="M796 731.8L820.71 774.6H870.13L894.84 731.8L870.13 689H820.71L796 731.8Z" fill="black" stroke="black"/>
<path id="Vector_51" d="M637 731.8L661.71 774.6H711.13L735.84 731.8L711.13 689H661.71L637 731.8Z" fill="black" stroke="black"/>
<path id="Vector_52" d="M478 731.8L502.71 774.6H552.13L576.84 731.8L552.13 689H502.71L478 731.8Z" fill="black" stroke="black"/>
<path id="Vector_53" d="M319 731.8L343.71 774.6H393.13L417.84 731.8L393.13 689H343.71L319 731.8Z" fill="black" stroke="black"/>
<path id="Vector_54" d="M160 731.8L184.71 774.6H234.13L258.84 731.8L234.13 689H184.71L160 731.8Z" fill="black" stroke="black"/>
<path id="Vector_55" d="M1 731.8L25.71 774.6H75.13L99.84 731.8L75.13 689H25.71L1 731.8Z" fill="black" stroke="black"/>
<path id="Vector_56" d="M1193 686.8L1217.71 729.6H1267.13L1291.84 686.8L1267.13 644H1217.71L1193 686.8Z" fill="black" stroke="black"/>
<path id="Vector_57" d="M1035 686.8L1059.71 729.6H1109.13L1133.84 686.8L1109.13 644H1059.71L1035 686.8Z" fill="black" stroke="black"/>
<path id="Vector_58" d="M876 686.8L900.71 729.6H950.13L974.84 686.8L950.13 644H900.71L876 686.8Z" fill="black" stroke="black"/>
<path id="Vector_59" d="M717 686.8L741.71 729.6H791.13L815.84 686.8L791.13 644H741.71L717 686.8Z" fill="black" stroke="black"/>
<path id="Vector_60" d="M557 686.8L581.71 729.6H631.13L655.84 686.8L631.13 644H581.71L557 686.8Z" fill="black" stroke="black"/>
<path id="Vector_61" d="M398 686.8L422.71 729.6H472.13L496.84 686.8L472.13 644H422.71L398 686.8Z" fill="black" stroke="black"/>
<path id="Vector_62" d="M240 686.8L264.71 729.6H314.13L338.84 686.8L314.13 644H264.71L240 686.8Z" fill="#DBFF00" stroke="black"/>
<path id="Vector_63" d="M81 686.8L105.71 729.6H155.13L179.84 686.8L155.13 644H105.71L81 686.8Z" fill="black" stroke="black"/>
<path id="Vector_64" d="M1114 640.8L1138.71 683.6H1188.13L1212.84 640.8L1188.13 598H1138.71L1114 640.8Z" fill="black" stroke="black"/>
<path id="Vector_65" d="M955 640.8L979.71 683.6H1029.13L1053.84 640.8L1029.13 598H979.71L955 640.8Z" fill="black" stroke="black"/>
<path id="Vector_66" d="M796 640.8L820.71 683.6H870.13L894.84 640.8L870.13 598H820.71L796 640.8Z" fill="black" stroke="black"/>
<path id="Vector_67" d="M637 640.8L661.71 683.6H711.13L735.84 640.8L711.13 598H661.71L637 640.8Z" fill="black" stroke="black"/>
<path id="Vector_68" d="M478 640.8L502.71 683.6H552.13L576.84 640.8L552.13 598H502.71L478 640.8Z" fill="black" stroke="black"/>
<path id="Vector_69" d="M319 640.8L343.71 683.6H393.13L417.84 640.8L393.13 598H343.71L319 640.8Z" fill="black" stroke="black"/>
<path id="Vector_70" d="M160 640.8L184.71 683.6H234.13L258.84 640.8L234.13 598H184.71L160 640.8Z" fill="black" stroke="black"/>
<path id="Vector_71" d="M1 640.8L25.71 683.6H75.13L99.84 640.8L75.13 598H25.71L1 640.8Z" fill="black" stroke="black"/>
<path id="Vector_72" d="M1193 594.8L1217.71 637.6H1267.13L1291.84 594.8L1267.13 552H1217.71L1193 594.8Z" fill="black" stroke="black"/>
<path id="Vector_73" d="M1035 594.8L1059.71 637.6H1109.13L1133.84 594.8L1109.13 552H1059.71L1035 594.8Z" fill="black" stroke="black"/>
<path id="Vector_74" d="M876 594.8L900.71 637.6H950.13L974.84 594.8L950.13 552H900.71L876 594.8Z" fill="black" stroke="black"/>
<path id="Vector_75" d="M717 594.8L741.71 637.6H791.13L815.84 594.8L791.13 552H741.71L717 594.8Z" fill="black" stroke="black"/>
<path id="Vector_76" d="M557 594.8L581.71 637.6H631.13L655.84 594.8L631.13 552H581.71L557 594.8Z" fill="black" stroke="black"/>
<path id="Vector_77" d="M398 594.8L422.71 637.6H472.13L496.84 594.8L472.13 552H422.71L398 594.8Z" fill="black" stroke="black"/>
<path id="Vector_78" d="M240 594.8L264.71 637.6H314.13L338.84 594.8L314.13 552H264.71L240 594.8Z" fill="black" stroke="black"/>
<path id="Vector_79" d="M81 594.8L105.71 637.6H155.13L179.84 594.8L155.13 552H105.71L81 594.8Z" fill="black" stroke="black"/>
<path id="Vector_80" d="M1114 548.8L1138.71 591.6H1188.13L1212.84 548.8L1188.13 506H1138.71L1114 548.8Z" fill="black" stroke="black"/>
<path id="Vector_81" d="M955 548.8L979.71 591.6H1029.13L1053.84 548.8L1029.13 506H979.71L955 548.8Z" fill="black" stroke="black"/>
<path id="Vector_82" d="M796 548.8L820.71 591.6H870.13L894.84 548.8L870.13 506H820.71L796 548.8Z" fill="black" stroke="black"/>
<path id="Vector_83" d="M637 548.8L661.71 591.6H711.13L735.84 548.8L711.13 506H661.71L637 548.8Z" fill="black" stroke="black"/>
<path id="Vector_84" d="M478 548.8L502.71 591.6H552.13L576.84 548.8L552.13 506H502.71L478 548.8Z" fill="black" stroke="black"/>
<path id="Vector_85" d="M319 548.8L343.71 591.6H393.13L417.84 548.8L393.13 506H343.71L319 548.8Z" fill="black" stroke="black"/>
<path id="Vector_86" d="M160 548.8L184.71 591.6H234.13L258.84 548.8L234.13 506H184.71L160 548.8Z" fill="black" stroke="black"/>
<path id="Vector_87" d="M1 548.8L25.71 591.6H75.13L99.84 548.8L75.13 506H25.71L1 548.8Z" fill="black" stroke="black"/>
<path id="Vector_88" d="M1193 503.8L1217.71 546.6H1267.13L1291.84 503.8L1267.13 461H1217.71L1193 503.8Z" fill="black" stroke="black"/>
<path id="Vector_89" d="M1035 503.8L1059.71 546.6H1109.13L1133.84 503.8L1109.13 461H1059.71L1035 503.8Z" fill="black" stroke="black"/>
<path id="Vector_90" d="M876 503.8L900.71 546.6H950.13L974.84 503.8L950.13 461H900.71L876 503.8Z" fill="black" stroke="black"/>
<path id="Vector_91" d="M717 503.8L741.71 546.6H791.13L815.84 503.8L791.13 461H741.71L717 503.8Z" fill="black" stroke="black"/>
<path id="Vector_92" d="M557 503.8L581.71 546.6H631.13L655.84 503.8L631.13 461H581.71L557 503.8Z" fill="black" stroke="black"/>
<path id="Vector_93" d="M398 503.8L422.71 546.6H472.13L496.84 503.8L472.13 461H422.71L398 503.8Z" fill="black" stroke="black"/>
<path id="Vector_94" d="M240 503.8L264.71 546.6H314.13L338.84 503.8L314.13 461H264.71L240 503.8Z" fill="black" stroke="black"/>
<path id="Vector_95" d="M81 503.8L105.71 546.6H155.13L179.84 503.8L155.13 461H105.71L81 503.8Z" fill="black" stroke="black"/>
<path id="Vector_96" d="M1114 457.8L1138.71 500.6H1188.13L1212.84 457.8L1188.13 415H1138.71L1114 457.8Z" fill="black" stroke="black"/>
<path id="Vector_97" d="M955 457.8L979.71 500.6H1029.13L1053.84 457.8L1029.13 415H979.71L955 457.8Z" fill="black" stroke="black"/>
<path id="Vector_98" d="M796 457.8L820.71 500.6H870.13L894.84 457.8L870.13 415H820.71L796 457.8Z" fill="black" stroke="black"/>
<path id="Vector_99" d="M637 457.8L661.71 500.6H711.13L735.84 457.8L711.13 415H661.71L637 457.8Z" fill="black" stroke="black"/>
<path id="Vector_100" d="M478 457.8L502.71 500.6H552.13L576.84 457.8L552.13 415H502.71L478 457.8Z" fill="black" stroke="black"/>
<path id="Vector_101" d="M319 457.8L343.71 500.6H393.13L417.84 457.8L393.13 415H343.71L319 457.8Z" fill="black" stroke="black"/>
<path id="Vector_102" d="M160 457.8L184.71 500.6H234.13L258.84 457.8L234.13 415H184.71L160 457.8Z" fill="black" stroke="black"/>
<path id="Vector_103" d="M1 457.8L25.71 500.6H75.13L99.84 457.8L75.13 415H25.71L1 457.8Z" fill="black" stroke="black"/>
<path id="Vector_104" d="M1193 411.8L1217.71 454.6H1267.13L1291.84 411.8L1267.13 369H1217.71L1193 411.8Z" fill="black" stroke="black"/>
<path id="Vector_105" d="M1035 411.8L1059.71 454.6H1109.13L1133.84 411.8L1109.13 369H1059.71L1035 411.8Z" fill="black" stroke="black"/>
<path id="Vector_106" d="M876 411.8L900.71 454.6H950.13L974.84 411.8L950.13 369H900.71L876 411.8Z" fill="black" stroke="black"/>
<path id="Vector_107" d="M717 411.8L741.71 454.6H791.13L815.84 411.8L791.13 369H741.71L717 411.8Z" fill="black" stroke="black"/>
<path id="Vector_108" d="M557 411.8L581.71 454.6H631.13L655.84 411.8L631.13 369H581.71L557 411.8Z" fill="#DBFF00" stroke="black"/>
<path id="Vector_109" d="M398 411.8L422.71 454.6H472.13L496.84 411.8L472.13 369H422.71L398 411.8Z" fill="black" stroke="black"/>
<path id="Vector_110" d="M240 411.8L264.71 454.6H314.13L338.84 411.8L314.13 369H264.71L240 411.8Z" fill="black" stroke="black"/>
<path id="Vector_111" d="M81 411.8L105.71 454.6H155.13L179.84 411.8L155.13 369H105.71L81 411.8Z" fill="#DBFF00" stroke="black"/>
<path id="Vector_112" d="M1114 365.8L1138.71 408.6H1188.13L1212.84 365.8L1188.13 323H1138.71L1114 365.8Z" fill="black" stroke="black"/>
<path id="Vector_113" d="M955 365.8L979.71 408.6H1029.13L1053.84 365.8L1029.13 323H979.71L955 365.8Z" fill="black" stroke="black"/>
<path id="Vector_114" d="M796 365.8L820.71 408.6H870.13L894.84 365.8L870.13 323H820.71L796 365.8Z" fill="black" stroke="black"/>
<path id="Vector_115" d="M637 365.8L661.71 408.6H711.13L735.84 365.8L711.13 323H661.71L637 365.8Z" fill="black" stroke="black"/>
<path id="Vector_116" d="M478 365.8L502.71 408.6H552.13L576.84 365.8L552.13 323H502.71L478 365.8Z" fill="black" stroke="black"/>
<path id="Vector_117" d="M319 365.8L343.71 408.6H393.13L417.84 365.8L393.13 323H343.71L319 365.8Z" fill="black" stroke="black"/>
<path id="Vector_118" d="M160 365.8L184.71 408.6H234.13L258.84 365.8L234.13 323H184.71L160 365.8Z" fill="black" stroke="black"/>
<path id="Vector_119" d="M1 365.8L25.71 408.6H75.13L99.84 365.8L75.13 323H25.71L1 365.8Z" fill="black" stroke="black"/>
<path id="Vector_120" d="M1193 320.8L1217.71 363.6H1267.13L1291.84 320.8L1267.13 278H1217.71L1193 320.8Z" fill="black" stroke="black"/>
<path id="Vector_121" d="M1035 320.8L1059.71 363.6H1109.13L1133.84 320.8L1109.13 278H1059.71L1035 320.8Z" fill="black" stroke="black"/>
<path id="Vector_122" d="M876 320.8L900.71 363.6H950.13L974.84 320.8L950.13 278H900.71L876 320.8Z" fill="black" stroke="black"/>
<path id="Vector_123" d="M717 320.8L741.71 363.6H791.13L815.84 320.8L791.13 278H741.71L717 320.8Z" fill="black" stroke="black"/>
<path id="Vector_124" d="M557 320.8L581.71 363.6H631.13L655.84 320.8L631.13 278H581.71L557 320.8Z" fill="black" stroke="black"/>
<path id="Vector_125" d="M398 320.8L422.71 363.6H472.13L496.84 320.8L472.13 278H422.71L398 320.8Z" fill="black" stroke="black"/>
<path id="Vector_126" d="M240 320.8L264.71 363.6H314.13L338.84 320.8L314.13 278H264.71L240 320.8Z" fill="black" stroke="black"/>
<path id="Vector_127" d="M81 320.8L105.71 363.6H155.13L179.84 320.8L155.13 278H105.71L81 320.8Z" fill="black" stroke="black"/>
<path id="Vector_128" d="M1114 274.8L1138.71 317.6H1188.13L1212.84 274.8L1188.13 232H1138.71L1114 274.8Z" fill="black" stroke="black"/>
<path id="Vector_129" d="M955 274.8L979.71 317.6H1029.13L1053.84 274.8L1029.13 232H979.71L955 274.8Z" fill="black" stroke="black"/>
<path id="Vector_130" d="M796 274.8L820.71 317.6H870.13L894.84 274.8L870.13 232H820.71L796 274.8Z" fill="black" stroke="black"/>
<path id="Vector_131" d="M637 274.8L661.71 317.6H711.13L735.84 274.8L711.13 232H661.71L637 274.8Z" fill="black" stroke="black"/>
<path id="Vector_132" d="M478 274.8L502.71 317.6H552.13L576.84 274.8L552.13 232H502.71L478 274.8Z" fill="black" stroke="black"/>
<path id="Vector_133" d="M319 274.8L343.71 317.6H393.13L417.84 274.8L393.13 232H343.71L319 274.8Z" fill="black" stroke="black"/>
<path id="Vector_134" d="M160 274.8L184.71 317.6H234.13L258.84 274.8L234.13 232H184.71L160 274.8Z" fill="black" stroke="black"/>
<path id="Vector_135" d="M1 274.8L25.71 317.6H75.13L99.84 274.8L75.13 232H25.71L1 274.8Z" fill="black" stroke="black"/>
<path id="Vector_136" d="M1193 228.8L1217.71 271.6H1267.13L1291.84 228.8L1267.13 186H1217.71L1193 228.8Z" fill="black" stroke="black"/>
<path id="Vector_137" d="M1035 228.8L1059.71 271.6H1109.13L1133.84 228.8L1109.13 186H1059.71L1035 228.8Z" fill="black" stroke="black"/>
<path id="Vector_138" d="M876 228.8L900.71 271.6H950.13L974.84 228.8L950.13 186H900.71L876 228.8Z" fill="black" stroke="black"/>
<path id="Vector_139" d="M717 228.8L741.71 271.6H791.13L815.84 228.8L791.13 186H741.71L717 228.8Z" fill="black" stroke="black"/>
<path id="Vector_140" d="M557 228.8L581.71 271.6H631.13L655.84 228.8L631.13 186H581.71L557 228.8Z" fill="black" stroke="black"/>
<path id="Vector_141" d="M398 228.8L422.71 271.6H472.13L496.84 228.8L472.13 186H422.71L398 228.8Z" fill="black" stroke="black"/>
<path id="Vector_142" d="M240 228.8L264.71 271.6H314.13L338.84 228.8L314.13 186H264.71L240 228.8Z" fill="black" stroke="black"/>
<path id="Vector_143" d="M81 228.8L105.71 271.6H155.13L179.84 228.8L155.13 186H105.71L81 228.8Z" fill="black" stroke="black"/>
<path id="Vector_144" d="M1114 182.8L1138.71 225.6H1188.13L1212.84 182.8L1188.13 140H1138.71L1114 182.8Z" fill="black" stroke="black"/>
<path id="Vector_145" d="M955 182.8L979.71 225.6H1029.13L1053.84 182.8L1029.13 140H979.71L955 182.8Z" fill="black" stroke="black"/>
<path id="Vector_146" d="M796 182.8L820.71 225.6H870.13L894.84 182.8L870.13 140H820.71L796 182.8Z" fill="black" stroke="black"/>
<path id="Vector_147" d="M637 182.8L661.71 225.6H711.13L735.84 182.8L711.13 140H661.71L637 182.8Z" fill="black" stroke="black"/>
<path id="Vector_148" d="M478 182.8L502.71 225.6H552.13L576.84 182.8L552.13 140H502.71L478 182.8Z" fill="black" stroke="black"/>
<path id="Vector_149" d="M319 182.8L343.71 225.6H393.13L417.84 182.8L393.13 140H343.71L319 182.8Z" fill="black" stroke="black"/>
<path id="Vector_150" d="M160 182.8L184.71 225.6H234.13L258.84 182.8L234.13 140H184.71L160 182.8Z" fill="black" stroke="black"/>
<path id="Vector_151" d="M1 182.8L25.71 225.6H75.13L99.84 182.8L75.13 140H25.71L1 182.8Z" fill="black" stroke="black"/>
<path id="Vector_152" d="M157.139 372.464L155.139 369L151.139 369M157.134 451.136L155.134 454.6L151.134 454.6M83.0029 408.336L81.0029 411.8L83.0029 415.264M177.845 408.336L179.845 411.8L177.845 415.264M103.718 372.464L105.718 369L109.718 369M103.723 451.136L105.723 454.6L109.723 454.6" stroke="#EF1E1E"/>
<path id="Vector_153" d="M77.1359 326.464L75.1359 323L71.1359 323M77.1316 405.136L75.1316 408.6L71.1316 408.6M3 362.336L1 365.8L2.99999 369.264M97.8417 362.336L99.8417 365.8L97.8417 369.264M23.7155 326.464L25.7155 323L29.7155 323M23.7198 405.136L25.7198 408.6L29.7198 408.6" stroke="#EF1E1E"/>
<path id="Vector_154" d="M157.159 464.464L155.159 461L151.159 461M157.155 543.136L155.155 546.6L151.155 546.6M83.0236 500.336L81.0236 503.8L83.0236 507.264M177.865 500.336L179.865 503.8L177.865 507.264M103.739 464.464L105.739 461L109.739 461M103.743 543.136L105.743 546.6L109.743 546.6" stroke="#EF1E1E"/>
<path id="Vector_155" d="M77.1565 418.464L75.1565 415L71.1565 415M77.1523 497.136L75.1523 500.6L71.1523 500.6M3.02069 454.336L1.02069 457.8L3.02068 461.264M97.8624 454.336L99.8624 457.8L97.8624 461.264M23.7362 418.464L25.7362 415L29.7362 415M23.7405 497.136L25.7405 500.6L29.7405 500.6" stroke="#EF1E1E"/>
<path id="Vector_156" d="M157.134 189.464L155.134 186L151.134 186M157.13 268.136L155.13 271.6L151.13 271.6M82.9983 225.336L80.9983 228.8L82.9983 232.264M177.84 225.336L179.84 228.8L177.84 232.264M103.714 189.464L105.714 186L109.714 186M103.718 268.136L105.718 271.6L109.718 271.6" stroke="#EF1E1E"/>
<path id="Vector_157" d="M77.1313 143.464L75.1313 140L71.1313 140M77.127 222.136L75.127 225.6L71.127 225.6M2.99542 179.336L0.995422 182.8L2.99541 186.264M97.8371 179.336L99.8371 182.8L97.8372 186.264M23.7109 143.464L25.7109 140L29.7109 140M23.7152 222.136L25.7152 225.6L29.7152 225.6" stroke="#EF1E1E"/>
<path id="Vector_158" d="M157.155 281.464L155.155 278L151.155 278M157.151 360.136L155.151 363.6L151.151 363.6M83.019 317.336L81.019 320.8L83.019 324.264M177.861 317.336L179.861 320.8L177.861 324.264M103.734 281.464L105.734 278L109.734 278M103.739 360.136L105.739 363.6L109.739 363.6" stroke="#EF1E1E"/>
<path id="Vector_159" d="M77.152 235.464L75.152 232L71.152 232M77.1477 314.136L75.1477 317.6L71.1477 317.6M3.01611 271.336L1.01611 274.8L3.0161 278.264M97.8578 271.336L99.8578 274.8L97.8578 278.264M23.7316 235.464L25.7316 232L29.7316 232M23.7359 314.136L25.7359 317.6L29.7359 317.6" stroke="#EF1E1E"/>
<path id="Vector_160" d="M157.143 738.464L155.143 735L151.143 735M157.139 817.136L155.139 820.6L151.139 820.6M83.0074 774.336L81.0074 777.8L83.0074 781.264M177.849 774.336L179.849 777.8L177.849 781.264M103.723 738.464L105.723 735L109.723 735M103.727 817.136L105.727 820.6L109.727 820.6" stroke="#EF1E1E"/>
<path id="Vector_161" d="M77.1404 692.464L75.1404 689L71.1404 689M77.1362 771.136L75.1362 774.6L71.1362 774.6M3.00458 728.336L1.00458 731.8L3.00457 735.264M97.8463 728.336L99.8463 731.8L97.8463 735.264M23.7201 692.464L25.7201 689L29.7201 689M23.7244 771.136L25.7244 774.6L29.7244 774.6" stroke="#EF1E1E"/>
<path id="Vector_162" d="M77.1611 784.464L75.1611 781L71.1611 781M77.1569 863.136L75.1569 866.6L71.1569 866.6M3.02527 820.336L1.02527 823.8L3.02526 827.264M97.867 820.336L99.867 823.8L97.867 827.264M23.7408 784.464L25.7408 781L29.7408 781M23.745 863.136L25.745 866.6L29.745 866.6" stroke="#EF1E1E"/>
<path id="Vector_163" d="M157.139 555.464L155.139 552L151.139 552M157.134 634.136L155.134 637.6L151.134 637.6M83.0029 591.336L81.0029 594.8L83.0029 598.264M177.845 591.336L179.845 594.8L177.845 598.264M103.718 555.464L105.718 552L109.718 552M103.723 634.136L105.723 637.6L109.723 637.6" stroke="#EF1E1E"/>
<path id="Vector_164" d="M77.1359 509.464L75.1359 506L71.1359 506M77.1316 588.136L75.1316 591.6L71.1316 591.6M3 545.336L1 548.8L2.99999 552.264M97.8417 545.336L99.8417 548.8L97.8417 552.264M23.7155 509.464L25.7155 506L29.7155 506M23.7198 588.136L25.7198 591.6L29.7198 591.6" stroke="#EF1E1E"/>
<path id="Vector_165" d="M157.159 647.464L155.159 644L151.159 644M157.155 726.136L155.155 729.6L151.155 729.6M83.0236 683.336L81.0236 686.8L83.0236 690.264M177.865 683.336L179.865 686.8L177.865 690.264M103.739 647.464L105.739 644L109.739 644M103.743 726.136L105.743 729.6L109.743 729.6" stroke="#EF1E1E"/>
<path id="Vector_166" d="M77.1565 601.464L75.1565 598L71.1565 598M77.1523 680.136L75.1523 683.6L71.1523 683.6M3.02069 637.336L1.02069 640.8L3.02068 644.264M97.8624 637.336L99.8624 640.8L97.8624 644.264M23.7362 601.464L25.7362 598L29.7362 598M23.7405 680.136L25.7405 683.6L29.7405 683.6" stroke="#EF1E1E"/>
<path id="Vector_167" d="M316.143 372.464L314.143 369L310.143 369M316.139 451.136L314.139 454.6L310.139 454.6M242.007 408.336L240.007 411.8L242.007 415.264M336.849 408.336L338.849 411.8L336.849 415.264M262.723 372.464L264.723 369L268.723 369M262.727 451.136L264.727 454.6L268.727 454.6" stroke="#EF1E1E"/>
<path id="Vector_168" d="M236.14 326.464L234.14 323L230.14 323M236.136 405.136L234.136 408.6L230.136 408.6M162.005 362.336L160.005 365.8L162.005 369.264M256.846 362.336L258.846 365.8L256.846 369.264M182.72 326.464L184.72 323L188.72 323M182.724 405.136L184.724 408.6L188.724 408.6" stroke="#EF1E1E"/>
<path id="Vector_169" d="M316.164 464.464L314.164 461L310.164 461M316.16 543.136L314.16 546.6L310.16 546.6M242.028 500.336L240.028 503.8L242.028 507.264M336.87 500.336L338.87 503.8L336.87 507.264M262.744 464.464L264.744 461L268.744 461M262.748 543.136L264.748 546.6L268.748 546.6" stroke="#EF1E1E"/>
<path id="Vector_170" d="M236.161 418.464L234.161 415L230.161 415M236.157 497.136L234.157 500.6L230.157 500.6M162.025 454.336L160.025 457.8L162.025 461.264M256.867 454.336L258.867 457.8L256.867 461.264M182.741 418.464L184.741 415L188.741 415M182.745 497.136L184.745 500.6L188.745 500.6" stroke="#EF1E1E"/>
<path id="Vector_171" d="M316.139 189.464L314.139 186L310.139 186M316.134 268.136L314.134 271.6L310.134 271.6M242.003 225.336L240.003 228.8L242.003 232.264M336.845 225.336L338.845 228.8L336.845 232.264M262.718 189.464L264.718 186L268.718 186M262.723 268.136L264.723 271.6L268.723 271.6" stroke="#EF1E1E"/>
<path id="Vector_172" d="M236.136 143.464L234.136 140L230.136 140M236.132 222.136L234.132 225.6L230.132 225.6M162 179.336L160 182.8L162 186.264M256.842 179.336L258.842 182.8L256.842 186.264M182.716 143.464L184.716 140L188.716 140M182.72 222.136L184.72 225.6L188.72 225.6" stroke="#EF1E1E"/>
<path id="Vector_173" d="M316.159 281.464L314.159 278L310.159 278M316.155 360.136L314.155 363.6L310.155 363.6M242.024 317.336L240.024 320.8L242.024 324.264M336.865 317.336L338.865 320.8L336.865 324.264M262.739 281.464L264.739 278L268.739 278M262.743 360.136L264.743 363.6L268.743 363.6" stroke="#EF1E1E"/>
<path id="Vector_174" d="M236.157 235.464L234.157 232L230.157 232M236.152 314.136L234.152 317.6L230.152 317.6M162.021 271.336L160.021 274.8L162.021 278.264M256.862 271.336L258.862 274.8L256.862 278.264M182.736 235.464L184.736 232L188.736 232M182.74 314.136L184.74 317.6L188.74 317.6" stroke="#EF1E1E"/>
<path id="Vector_175" d="M316.148 738.464L314.148 735L310.148 735M316.144 817.136L314.144 820.6L310.144 820.6M242.012 774.336L240.012 777.8L242.012 781.264M336.854 774.336L338.854 777.8L336.854 781.264M262.728 738.464L264.728 735L268.728 735M262.732 817.136L264.732 820.6L268.732 820.6" stroke="#EF1E1E"/>
<path id="Vector_176" d="M236.145 692.464L234.145 689L230.145 689M236.141 771.136L234.141 774.6L230.141 774.6M162.009 728.336L160.009 731.8L162.009 735.264M256.851 728.336L258.851 731.8L256.851 735.264M182.725 692.464L184.725 689L188.725 689M182.729 771.136L184.729 774.6L188.729 774.6" stroke="#EF1E1E"/>
<path id="Vector_177" d="M236.166 784.464L234.166 781L230.166 781M236.161 863.136L234.161 866.6L230.161 866.6M162.03 820.336L160.03 823.8L162.03 827.264M256.872 820.336L258.872 823.8L256.872 827.264M182.745 784.464L184.745 781L188.745 781M182.75 863.136L184.75 866.6L188.75 866.6" stroke="#EF1E1E"/>
<path id="Vector_178" d="M316.143 555.464L314.143 552L310.143 552M316.139 634.136L314.139 637.6L310.139 637.6M242.007 591.336L240.007 594.8L242.007 598.264M336.849 591.336L338.849 594.8L336.849 598.264M262.723 555.464L264.723 552L268.723 552M262.727 634.136L264.727 637.6L268.727 637.6" stroke="#EF1E1E"/>
<path id="Vector_179" d="M236.14 509.464L234.14 506L230.14 506M236.136 588.136L234.136 591.6L230.136 591.6M162.005 545.336L160.005 548.8L162.005 552.264M256.846 545.336L258.846 548.8L256.846 552.264M182.72 509.464L184.72 506L188.72 506M182.724 588.136L184.724 591.6L188.724 591.6" stroke="#EF1E1E"/>
<path id="Vector_180" d="M316.164 647.464L314.164 644L310.164 644M316.16 726.136L314.16 729.6L310.16 729.6M242.028 683.336L240.028 686.8L242.028 690.264M336.87 683.336L338.87 686.8L336.87 690.264M262.744 647.464L264.744 644L268.744 644M262.748 726.136L264.748 729.6L268.748 729.6" stroke="#EF1E1E"/>
<path id="Vector_181" d="M236.161 601.464L234.161 598L230.161 598M236.157 680.136L234.157 683.6L230.157 683.6M162.025 637.336L160.025 640.8L162.025 644.264M256.867 637.336L258.867 640.8L256.867 644.264M182.741 601.464L184.741 598L188.741 598M182.745 680.136L184.745 683.6L188.745 683.6" stroke="#EF1E1E"/>
<path id="Vector_182" d="M474.136 372.464L472.136 369L468.136 369M474.132 451.136L472.132 454.6L468.132 454.6M400 408.336L398 411.8L400 415.264M494.842 408.336L496.842 411.8L494.842 415.264M420.716 372.464L422.716 369L426.716 369M420.72 451.136L422.72 454.6L426.72 454.6" stroke="#EF1E1E"/>
<path id="Vector_183" d="M395.14 326.464L393.14 323L389.14 323M395.136 405.136L393.136 408.6L389.136 408.6M321.005 362.336L319.005 365.8L321.005 369.264M415.846 362.336L417.846 365.8L415.846 369.264M341.72 326.464L343.72 323L347.72 323M341.724 405.136L343.724 408.6L347.724 408.6" stroke="#EF1E1E"/>
<path id="Vector_184" d="M474.136 464.464L472.136 461L468.136 461M474.132 543.136L472.132 546.6L468.132 546.6M400 500.336L398 503.8L400 507.264M494.842 500.336L496.842 503.8L494.842 507.264M420.716 464.464L422.716 461L426.716 461M420.72 543.136L422.72 546.6L426.72 546.6" stroke="#EF1E1E"/>
<path id="Vector_185" d="M395.161 418.464L393.161 415L389.161 415M395.157 497.136L393.157 500.6L389.157 500.6M321.025 454.336L319.025 457.8L321.025 461.264M415.867 454.336L417.867 457.8L415.867 461.264M341.741 418.464L343.741 415L347.741 415M341.745 497.136L343.745 500.6L347.745 500.6" stroke="#EF1E1E"/>
<path id="Vector_186" d="M474.136 189.464L472.136 186L468.136 186M474.132 268.136L472.132 271.6L468.132 271.6M400 225.336L398 228.8L400 232.264M494.842 225.336L496.842 228.8L494.842 232.264M420.716 189.464L422.716 186L426.716 186M420.72 268.136L422.72 271.6L426.72 271.6" stroke="#EF1E1E"/>
<path id="Vector_187" d="M395.136 143.464L393.136 140L389.136 140M395.132 222.136L393.132 225.6L389.132 225.6M321 179.336L319 182.8L321 186.264M415.842 179.336L417.842 182.8L415.842 186.264M341.716 143.464L343.716 140L347.716 140M341.72 222.136L343.72 225.6L347.72 225.6" stroke="#EF1E1E"/>
<path id="Vector_188" d="M474.136 281.464L472.136 278L468.136 278M474.132 360.136L472.132 363.6L468.132 363.6M400 317.336L398 320.8L400 324.264M494.842 317.336L496.842 320.8L494.842 324.264M420.716 281.464L422.716 278L426.716 278M420.72 360.136L422.72 363.6L426.72 363.6" stroke="#EF1E1E"/>
<path id="Vector_189" d="M395.157 235.464L393.157 232L389.157 232M395.152 314.136L393.152 317.6L389.152 317.6M321.021 271.336L319.021 274.8L321.021 278.264M415.862 271.336L417.862 274.8L415.862 278.264M341.736 235.464L343.736 232L347.736 232M341.74 314.136L343.74 317.6L347.74 317.6" stroke="#EF1E1E"/>
<path id="Vector_190" d="M474.136 738.464L472.136 735L468.136 735M474.132 817.136L472.132 820.6L468.132 820.6M400 774.336L398 777.8L400 781.264M494.842 774.336L496.842 777.8L494.842 781.264M420.716 738.464L422.716 735L426.716 735M420.72 817.136L422.72 820.6L426.72 820.6" stroke="#EF1E1E"/>
<path id="Vector_191" d="M395.145 692.464L393.145 689L389.145 689M395.141 771.136L393.141 774.6L389.141 774.6M321.009 728.336L319.009 731.8L321.009 735.264M415.851 728.336L417.851 731.8L415.851 735.264M341.725 692.464L343.725 689L347.725 689M341.729 771.136L343.729 774.6L347.729 774.6" stroke="#EF1E1E"/>
<path id="Vector_192" d="M395.166 784.464L393.166 781L389.166 781M395.161 863.136L393.161 866.6L389.161 866.6M321.03 820.336L319.03 823.8L321.03 827.264M415.872 820.336L417.872 823.8L415.872 827.264M341.745 784.464L343.745 781L347.745 781M341.75 863.136L343.75 866.6L347.75 866.6" stroke="#EF1E1E"/>
<path id="Vector_193" d="M474.136 555.464L472.136 552L468.136 552M474.132 634.136L472.132 637.6L468.132 637.6M400 591.336L398 594.8L400 598.264M494.842 591.336L496.842 594.8L494.842 598.264M420.716 555.464L422.716 552L426.716 552M420.72 634.136L422.72 637.6L426.72 637.6" stroke="#EF1E1E"/>
<path id="Vector_194" d="M395.14 509.464L393.14 506L389.14 506M395.136 588.136L393.136 591.6L389.136 591.6M321.005 545.336L319.005 548.8L321.005 552.264M415.846 545.336L417.846 548.8L415.846 552.264M341.72 509.464L343.72 506L347.72 506M341.724 588.136L343.724 591.6L347.724 591.6" stroke="#EF1E1E"/>
<path id="Vector_195" d="M474.136 647.464L472.136 644L468.136 644M474.132 726.136L472.132 729.6L468.132 729.6M400 683.336L398 686.8L400 690.264M494.842 683.336L496.842 686.8L494.842 690.264M420.716 647.464L422.716 644L426.716 644M420.72 726.136L422.72 729.6L426.72 729.6" stroke="#EF1E1E"/>
<path id="Vector_196" d="M395.161 601.464L393.161 598L389.161 598M395.157 680.136L393.157 683.6L389.157 683.6M321.025 637.336L319.025 640.8L321.025 644.264M415.867 637.336L417.867 640.8L415.867 644.264M341.741 601.464L343.741 598L347.741 598M341.745 680.136L343.745 683.6L347.745 683.6" stroke="#EF1E1E"/>
<path id="Vector_197" d="M633.136 372.464L631.136 369L627.136 369M633.132 451.136L631.132 454.6L627.132 454.6M559 408.336L557 411.8L559 415.264M653.842 408.336L655.842 411.8L653.842 415.264M579.716 372.464L581.716 369L585.716 369M579.72 451.136L581.72 454.6L585.72 454.6" stroke="#EF1E1E"/>
<path id="Vector_198" d="M554.145 326.464L552.145 323L548.145 323M554.141 405.136L552.141 408.6L548.141 408.6M480.009 362.336L478.009 365.8L480.009 369.264M574.851 362.336L576.851 365.8L574.851 369.264M500.725 326.464L502.725 323L506.725 323M500.729 405.136L502.729 408.6L506.729 408.6" stroke="#EF1E1E"/>
<path id="Vector_199" d="M633.136 464.464L631.136 461L627.136 461M633.132 543.136L631.132 546.6L627.132 546.6M559 500.336L557 503.8L559 507.264M653.842 500.336L655.842 503.8L653.842 507.264M579.716 464.464L581.716 461L585.716 461M579.72 543.136L581.72 546.6L585.72 546.6" stroke="#EF1E1E"/>
<path id="Vector_200" d="M554.166 418.464L552.166 415L548.166 415M554.161 497.136L552.161 500.6L548.161 500.6M480.03 454.336L478.03 457.8L480.03 461.264M574.872 454.336L576.872 457.8L574.872 461.264M500.745 418.464L502.745 415L506.745 415M500.75 497.136L502.75 500.6L506.75 500.6" stroke="#EF1E1E"/>
<path id="Vector_201" d="M633.136 189.464L631.136 186L627.136 186M633.132 268.136L631.132 271.6L627.132 271.6M559 225.336L557 228.8L559 232.264M653.842 225.336L655.842 228.8L653.842 232.264M579.716 189.464L581.716 186L585.716 186M579.72 268.136L581.72 271.6L585.72 271.6" stroke="#EF1E1E"/>
<path id="Vector_202" d="M554.14 143.464L552.14 140L548.14 140M554.136 222.136L552.136 225.6L548.136 225.6M480.005 179.336L478.005 182.8L480.005 186.264M574.846 179.336L576.846 182.8L574.846 186.264M500.72 143.464L502.72 140L506.72 140M500.724 222.136L502.724 225.6L506.724 225.6" stroke="#EF1E1E"/>
<path id="Vector_203" d="M633.136 281.464L631.136 278L627.136 278M633.132 360.136L631.132 363.6L627.132 363.6M559 317.336L557 320.8L559 324.264M653.842 317.336L655.842 320.8L653.842 324.264M579.716 281.464L581.716 278L585.716 278M579.72 360.136L581.72 363.6L585.72 363.6" stroke="#EF1E1E"/>
<path id="Vector_204" d="M554.161 235.464L552.161 232L548.161 232M554.157 314.136L552.157 317.6L548.157 317.6M480.025 271.336L478.025 274.8L480.025 278.264M574.867 271.336L576.867 274.8L574.867 278.264M500.741 235.464L502.741 232L506.741 232M500.745 314.136L502.745 317.6L506.745 317.6" stroke="#EF1E1E"/>
<path id="Vector_205" d="M633.136 738.464L631.136 735L627.136 735M633.132 817.136L631.132 820.6L627.132 820.6M559 774.336L557 777.8L559 781.264M653.842 774.336L655.842 777.8L653.842 781.264M579.716 738.464L581.716 735L585.716 735M579.72 817.136L581.72 820.6L585.72 820.6" stroke="#EF1E1E"/>
<path id="Vector_206" d="M554.15 692.464L552.15 689L548.15 689M554.145 771.136L552.145 774.6L548.145 774.6M480.014 728.336L478.014 731.8L480.014 735.264M574.855 728.336L576.855 731.8L574.855 735.264M500.729 692.464L502.729 689L506.729 689M500.734 771.136L502.734 774.6L506.734 774.6" stroke="#EF1E1E"/>
<path id="Vector_207" d="M554.17 784.464L552.17 781L548.17 781M554.166 863.136L552.166 866.6L548.166 866.6M480.034 820.336L478.034 823.8L480.034 827.264M574.876 820.336L576.876 823.8L574.876 827.264M500.75 784.464L502.75 781L506.75 781M500.754 863.136L502.754 866.6L506.754 866.6" stroke="#EF1E1E"/>
<path id="Vector_208" d="M633.136 555.464L631.136 552L627.136 552M633.132 634.136L631.132 637.6L627.132 637.6M559 591.336L557 594.8L559 598.264M653.842 591.336L655.842 594.8L653.842 598.264M579.716 555.464L581.716 552L585.716 552M579.72 634.136L581.72 637.6L585.72 637.6" stroke="#EF1E1E"/>
<path id="Vector_209" d="M554.145 509.464L552.145 506L548.145 506M554.141 588.136L552.141 591.6L548.141 591.6M480.009 545.336L478.009 548.8L480.009 552.264M574.851 545.336L576.851 548.8L574.851 552.264M500.725 509.464L502.725 506L506.725 506M500.729 588.136L502.729 591.6L506.729 591.6" stroke="#EF1E1E"/>
<path id="Vector_210" d="M633.136 647.464L631.136 644L627.136 644M633.132 726.136L631.132 729.6L627.132 729.6M559 683.336L557 686.8L559 690.264M653.842 683.336L655.842 686.8L653.842 690.264M579.716 647.464L581.716 644L585.716 644M579.72 726.136L581.72 729.6L585.72 729.6" stroke="#EF1E1E"/>
<path id="Vector_211" d="M554.166 601.464L552.166 598L548.166 598M554.161 680.136L552.161 683.6L548.161 683.6M480.03 637.336L478.03 640.8L480.03 644.264M574.872 637.336L576.872 640.8L574.872 644.264M500.745 601.464L502.745 598L506.745 598M500.75 680.136L502.75 683.6L506.75 683.6" stroke="#EF1E1E"/>
<path id="Vector_212" d="M793.143 372.464L791.143 369L787.143 369M793.139 451.136L791.139 454.6L787.139 454.6M719.007 408.336L717.007 411.8L719.007 415.264M813.849 408.336L815.849 411.8L813.849 415.264M739.723 372.464L741.723 369L745.723 369M739.727 451.136L741.727 454.6L745.727 454.6" stroke="#EF1E1E"/>
<path id="Vector_213" d="M713.14 326.464L711.14 323L707.14 323M713.136 405.136L711.136 408.6L707.136 408.6M639.005 362.336L637.005 365.8L639.005 369.264M733.846 362.336L735.846 365.8L733.846 369.264M659.72 326.464L661.72 323L665.72 323M659.724 405.136L661.724 408.6L665.724 408.6" stroke="#EF1E1E"/>
<path id="Vector_214" d="M793.164 464.464L791.164 461L787.164 461M793.16 543.136L791.16 546.6L787.16 546.6M719.028 500.336L717.028 503.8L719.028 507.264M813.87 500.336L815.87 503.8L813.87 507.264M739.744 464.464L741.744 461L745.744 461M739.748 543.136L741.748 546.6L745.748 546.6" stroke="#EF1E1E"/>
<path id="Vector_215" d="M713.161 418.464L711.161 415L707.161 415M713.157 497.136L711.157 500.6L707.157 500.6M639.025 454.336L637.025 457.8L639.025 461.264M733.867 454.336L735.867 457.8L733.867 461.264M659.741 418.464L661.741 415L665.741 415M659.745 497.136L661.745 500.6L665.745 500.6" stroke="#EF1E1E"/>
<path id="Vector_216" d="M793.139 189.464L791.139 186L787.139 186M793.134 268.136L791.134 271.6L787.134 271.6M719.003 225.336L717.003 228.8L719.003 232.264M813.845 225.336L815.845 228.8L813.845 232.264M739.718 189.464L741.718 186L745.718 186M739.723 268.136L741.723 271.6L745.723 271.6" stroke="#EF1E1E"/>
<path id="Vector_217" d="M713.136 143.464L711.136 140L707.136 140M713.132 222.136L711.132 225.6L707.132 225.6M639 179.336L637 182.8L639 186.264M733.842 179.336L735.842 182.8L733.842 186.264M659.716 143.464L661.716 140L665.716 140M659.72 222.136L661.72 225.6L665.72 225.6" stroke="#EF1E1E"/>
<path id="Vector_218" d="M793.159 281.464L791.159 278L787.159 278M793.155 360.136L791.155 363.6L787.155 363.6M719.024 317.336L717.024 320.8L719.024 324.264M813.865 317.336L815.865 320.8L813.865 324.264M739.739 281.464L741.739 278L745.739 278M739.743 360.136L741.743 363.6L745.743 363.6" stroke="#EF1E1E"/>
<path id="Vector_219" d="M713.157 235.464L711.157 232L707.157 232M713.152 314.136L711.152 317.6L707.152 317.6M639.021 271.336L637.021 274.8L639.021 278.264M733.862 271.336L735.862 274.8L733.862 278.264M659.736 235.464L661.736 232L665.736 232M659.74 314.136L661.74 317.6L665.74 317.6" stroke="#EF1E1E"/>
<path id="Vector_220" d="M793.148 738.464L791.148 735L787.148 735M793.144 817.136L791.144 820.6L787.144 820.6M719.012 774.336L717.012 777.8L719.012 781.264M813.854 774.336L815.854 777.8L813.854 781.264M739.728 738.464L741.728 735L745.728 735M739.732 817.136L741.732 820.6L745.732 820.6" stroke="#EF1E1E"/>
<path id="Vector_221" d="M713.145 692.464L711.145 689L707.145 689M713.141 771.136L711.141 774.6L707.141 774.6M639.009 728.336L637.009 731.8L639.009 735.264M733.851 728.336L735.851 731.8L733.851 735.264M659.725 692.464L661.725 689L665.725 689M659.729 771.136L661.729 774.6L665.729 774.6" stroke="#EF1E1E"/>
<path id="Vector_222" d="M713.166 784.464L711.166 781L707.166 781M713.161 863.136L711.161 866.6L707.161 866.6M639.03 820.336L637.03 823.8L639.03 827.264M733.872 820.336L735.872 823.8L733.872 827.264M659.745 784.464L661.745 781L665.745 781M659.75 863.136L661.75 866.6L665.75 866.6" stroke="#EF1E1E"/>
<path id="Vector_223" d="M793.143 555.464L791.143 552L787.143 552M793.139 634.136L791.139 637.6L787.139 637.6M719.007 591.336L717.007 594.8L719.007 598.264M813.849 591.336L815.849 594.8L813.849 598.264M739.723 555.464L741.723 552L745.723 552M739.727 634.136L741.727 637.6L745.727 637.6" stroke="#EF1E1E"/>
<path id="Vector_224" d="M713.14 509.464L711.14 506L707.14 506M713.136 588.136L711.136 591.6L707.136 591.6M639.005 545.336L637.005 548.8L639.005 552.264M733.846 545.336L735.846 548.8L733.846 552.264M659.72 509.464L661.72 506L665.72 506M659.724 588.136L661.724 591.6L665.724 591.6" stroke="#EF1E1E"/>
<path id="Vector_225" d="M793.164 647.464L791.164 644L787.164 644M793.16 726.136L791.16 729.6L787.16 729.6M719.028 683.336L717.028 686.8L719.028 690.264M813.87 683.336L815.87 686.8L813.87 690.264M739.744 647.464L741.744 644L745.744 644M739.748 726.136L741.748 729.6L745.748 729.6" stroke="#EF1E1E"/>
<path id="Vector_226" d="M713.161 601.464L711.161 598L707.161 598M713.157 680.136L711.157 683.6L707.157 683.6M639.025 637.336L637.025 640.8L639.025 644.264M733.867 637.336L735.867 640.8L733.867 644.264M659.741 601.464L661.741 598L665.741 598M659.745 680.136L661.745 683.6L665.745 683.6" stroke="#EF1E1E"/>
<path id="Vector_227" d="M952.148 372.464L950.148 369L946.148 369M952.144 451.136L950.144 454.6L946.144 454.6M878.012 408.336L876.012 411.8L878.012 415.264M972.854 408.336L974.854 411.8L972.854 415.264M898.728 372.464L900.728 369L904.728 369M898.732 451.136L900.732 454.6L904.732 454.6" stroke="#EF1E1E"/>
<path id="Vector_228" d="M872.145 326.464L870.145 323L866.145 323M872.141 405.136L870.141 408.6L866.141 408.6M798.009 362.336L796.009 365.8L798.009 369.264M892.851 362.336L894.851 365.8L892.851 369.264M818.725 326.464L820.725 323L824.725 323M818.729 405.136L820.729 408.6L824.729 408.6" stroke="#EF1E1E"/>
<path id="Vector_229" d="M952.169 464.464L950.169 461L946.169 461M952.164 543.136L950.164 546.6L946.164 546.6M878.033 500.336L876.033 503.8L878.033 507.264M972.874 500.336L974.874 503.8L972.874 507.264M898.748 464.464L900.748 461L904.748 461M898.752 543.136L900.752 546.6L904.752 546.6" stroke="#EF1E1E"/>
<path id="Vector_230" d="M872.166 418.464L870.166 415L866.166 415M872.161 497.136L870.161 500.6L866.161 500.6M798.03 454.336L796.03 457.8L798.03 461.264M892.872 454.336L894.872 457.8L892.872 461.264M818.745 418.464L820.745 415L824.745 415M818.75 497.136L820.75 500.6L824.75 500.6" stroke="#EF1E1E"/>
<path id="Vector_231" d="M952.143 189.464L950.143 186L946.143 186M952.139 268.136L950.139 271.6L946.139 271.6M878.007 225.336L876.007 228.8L878.007 232.264M972.849 225.336L974.849 228.8L972.849 232.264M898.723 189.464L900.723 186L904.723 186M898.727 268.136L900.727 271.6L904.727 271.6" stroke="#EF1E1E"/>
<path id="Vector_232" d="M872.14 143.464L870.14 140L866.14 140M872.136 222.136L870.136 225.6L866.136 225.6M798.005 179.336L796.005 182.8L798.005 186.264M892.846 179.336L894.846 182.8L892.846 186.264M818.72 143.464L820.72 140L824.72 140M818.724 222.136L820.724 225.6L824.724 225.6" stroke="#EF1E1E"/>
<path id="Vector_233" d="M952.164 281.464L950.164 278L946.164 278M952.16 360.136L950.16 363.6L946.16 363.6M878.028 317.336L876.028 320.8L878.028 324.264M972.87 317.336L974.87 320.8L972.87 324.264M898.744 281.464L900.744 278L904.744 278M898.748 360.136L900.748 363.6L904.748 363.6" stroke="#EF1E1E"/>
<path id="Vector_234" d="M872.161 235.464L870.161 232L866.161 232M872.157 314.136L870.157 317.6L866.157 317.6M798.025 271.336L796.025 274.8L798.025 278.264M892.867 271.336L894.867 274.8L892.867 278.264M818.741 235.464L820.741 232L824.741 232M818.745 314.136L820.745 317.6L824.745 317.6" stroke="#EF1E1E"/>
<path id="Vector_235" d="M952.152 738.464L950.152 735L946.152 735M952.148 817.136L950.148 820.6L946.148 820.6M878.017 774.336L876.017 777.8L878.017 781.264M972.858 774.336L974.858 777.8L972.858 781.264M898.732 738.464L900.732 735L904.732 735M898.736 817.136L900.736 820.6L904.736 820.6" stroke="#EF1E1E"/>
<path id="Vector_236" d="M872.15 692.464L870.15 689L866.15 689M872.145 771.136L870.145 774.6L866.145 774.6M798.014 728.336L796.014 731.8L798.014 735.264M892.855 728.336L894.855 731.8L892.855 735.264M818.729 692.464L820.729 689L824.729 689M818.734 771.136L820.734 774.6L824.734 774.6" stroke="#EF1E1E"/>
<path id="Vector_237" d="M872.17 784.464L870.17 781L866.17 781M872.166 863.136L870.166 866.6L866.166 866.6M798.034 820.336L796.034 823.8L798.034 827.264M892.876 820.336L894.876 823.8L892.876 827.264M818.75 784.464L820.75 781L824.75 781M818.754 863.136L820.754 866.6L824.754 866.6" stroke="#EF1E1E"/>
<path id="Vector_238" d="M952.148 555.464L950.148 552L946.148 552M952.144 634.136L950.144 637.6L946.144 637.6M878.012 591.336L876.012 594.8L878.012 598.264M972.854 591.336L974.854 594.8L972.854 598.264M898.728 555.464L900.728 552L904.728 552M898.732 634.136L900.732 637.6L904.732 637.6" stroke="#EF1E1E"/>
<path id="Vector_239" d="M872.145 509.464L870.145 506L866.145 506M872.141 588.136L870.141 591.6L866.141 591.6M798.009 545.336L796.009 548.8L798.009 552.264M892.851 545.336L894.851 548.8L892.851 552.264M818.725 509.464L820.725 506L824.725 506M818.729 588.136L820.729 591.6L824.729 591.6" stroke="#EF1E1E"/>
<path id="Vector_240" d="M952.169 647.464L950.169 644L946.169 644M952.164 726.136L950.164 729.6L946.164 729.6M878.033 683.336L876.033 686.8L878.033 690.264M972.874 683.336L974.874 686.8L972.874 690.264M898.748 647.464L900.748 644L904.748 644M898.752 726.136L900.752 729.6L904.752 729.6" stroke="#EF1E1E"/>
<path id="Vector_241" d="M872.166 601.464L870.166 598L866.166 598M872.161 680.136L870.161 683.6L866.161 683.6M798.03 637.336L796.03 640.8L798.03 644.264M892.872 637.336L894.872 640.8L892.872 644.264M818.745 601.464L820.745 598L824.745 598M818.75 680.136L820.75 683.6L824.75 683.6" stroke="#EF1E1E"/>
<path id="Vector_242" d="M1111.14 372.464L1109.14 369L1105.14 369M1111.13 451.136L1109.13 454.6L1105.13 454.6M1037 408.336L1035 411.8L1037 415.264M1131.84 408.336L1133.84 411.8L1131.84 415.264M1057.72 372.464L1059.72 369L1063.72 369M1057.72 451.136L1059.72 454.6L1063.72 454.6" stroke="#EF1E1E"/>
<path id="Vector_243" d="M1031.15 326.464L1029.15 323L1025.15 323M1031.14 405.136L1029.14 408.6L1025.14 408.6M957.009 362.336L955.009 365.8L957.009 369.264M1051.85 362.336L1053.85 365.8L1051.85 369.264M977.725 326.464L979.725 323L983.725 323M977.729 405.136L979.729 408.6L983.729 408.6" stroke="#EF1E1E"/>
<path id="Vector_244" d="M1111.14 464.464L1109.14 461L1105.14 461M1111.13 543.136L1109.13 546.6L1105.13 546.6M1037 500.336L1035 503.8L1037 507.264M1131.84 500.336L1133.84 503.8L1131.84 507.264M1057.72 464.464L1059.72 461L1063.72 461M1057.72 543.136L1059.72 546.6L1063.72 546.6" stroke="#EF1E1E"/>
<path id="Vector_245" d="M1031.17 418.464L1029.17 415L1025.17 415M1031.16 497.136L1029.16 500.6L1025.16 500.6M957.03 454.336L955.03 457.8L957.03 461.264M1051.87 454.336L1053.87 457.8L1051.87 461.264M977.745 418.464L979.745 415L983.745 415M977.75 497.136L979.75 500.6L983.75 500.6" stroke="#EF1E1E"/>
<path id="Vector_246" d="M1111.14 189.464L1109.14 186L1105.14 186M1111.13 268.136L1109.13 271.6L1105.13 271.6M1037 225.336L1035 228.8L1037 232.264M1131.84 225.336L1133.84 228.8L1131.84 232.264M1057.72 189.464L1059.72 186L1063.72 186M1057.72 268.136L1059.72 271.6L1063.72 271.6" stroke="#EF1E1E"/>
<path id="Vector_247" d="M1031.14 143.464L1029.14 140L1025.14 140M1031.14 222.136L1029.14 225.6L1025.14 225.6M957.005 179.336L955.005 182.8L957.005 186.264M1051.85 179.336L1053.85 182.8L1051.85 186.264M977.72 143.464L979.72 140L983.72 140M977.724 222.136L979.724 225.6L983.724 225.6" stroke="#EF1E1E"/>
<path id="Vector_248" d="M1111.14 281.464L1109.14 278L1105.14 278M1111.13 360.136L1109.13 363.6L1105.13 363.6M1037 317.336L1035 320.8L1037 324.264M1131.84 317.336L1133.84 320.8L1131.84 324.264M1057.72 281.464L1059.72 278L1063.72 278M1057.72 360.136L1059.72 363.6L1063.72 363.6" stroke="#EF1E1E"/>
<path id="Vector_249" d="M1031.16 235.464L1029.16 232L1025.16 232M1031.16 314.136L1029.16 317.6L1025.16 317.6M957.025 271.336L955.025 274.8L957.025 278.264M1051.87 271.336L1053.87 274.8L1051.87 278.264M977.741 235.464L979.741 232L983.741 232M977.745 314.136L979.745 317.6L983.745 317.6" stroke="#EF1E1E"/>
<path id="Vector_250" d="M1111.14 738.464L1109.14 735L1105.14 735M1111.13 817.136L1109.13 820.6L1105.13 820.6M1037 774.336L1035 777.8L1037 781.264M1131.84 774.336L1133.84 777.8L1131.84 781.264M1057.72 738.464L1059.72 735L1063.72 735M1057.72 817.136L1059.72 820.6L1063.72 820.6" stroke="#EF1E1E"/>
<path id="Vector_251" d="M1031.15 692.464L1029.15 689L1025.15 689M1031.15 771.136L1029.15 774.6L1025.15 774.6M957.014 728.336L955.014 731.8L957.014 735.264M1051.86 728.336L1053.86 731.8L1051.86 735.264M977.729 692.464L979.729 689L983.729 689M977.734 771.136L979.734 774.6L983.734 774.6" stroke="#EF1E1E"/>
<path id="Vector_252" d="M1031.17 784.464L1029.17 781L1025.17 781M1031.17 863.136L1029.17 866.6L1025.17 866.6M957.034 820.336L955.034 823.8L957.034 827.264M1051.88 820.336L1053.88 823.8L1051.88 827.264M977.75 784.464L979.75 781L983.75 781M977.754 863.136L979.754 866.6L983.754 866.6" stroke="#EF1E1E"/>
<path id="Vector_253" d="M1111.14 555.464L1109.14 552L1105.14 552M1111.13 634.136L1109.13 637.6L1105.13 637.6M1037 591.336L1035 594.8L1037 598.264M1131.84 591.336L1133.84 594.8L1131.84 598.264M1057.72 555.464L1059.72 552L1063.72 552M1057.72 634.136L1059.72 637.6L1063.72 637.6" stroke="#EF1E1E"/>
<path id="Vector_254" d="M1031.15 509.464L1029.15 506L1025.15 506M1031.14 588.136L1029.14 591.6L1025.14 591.6M957.009 545.336L955.009 548.8L957.009 552.264M1051.85 545.336L1053.85 548.8L1051.85 552.264M977.725 509.464L979.725 506L983.725 506M977.729 588.136L979.729 591.6L983.729 591.6" stroke="#EF1E1E"/>
<path id="Vector_255" d="M1111.14 647.464L1109.14 644L1105.14 644M1111.13 726.136L1109.13 729.6L1105.13 729.6M1037 683.336L1035 686.8L1037 690.264M1131.84 683.336L1133.84 686.8L1131.84 690.264M1057.72 647.464L1059.72 644L1063.72 644M1057.72 726.136L1059.72 729.6L1063.72 729.6" stroke="#EF1E1E"/>
<path id="Vector_256" d="M1031.17 601.464L1029.17 598L1025.17 598M1031.16 680.136L1029.16 683.6L1025.16 683.6M957.03 637.336L955.03 640.8L957.03 644.264M1051.87 637.336L1053.87 640.8L1051.87 644.264M977.745 601.464L979.745 598L983.745 598M977.75 680.136L979.75 683.6L983.75 683.6" stroke="#EF1E1E"/>
<path id="Vector_257" d="M1269.14 372.464L1267.14 369L1263.14 369M1269.14 451.136L1267.14 454.6L1263.14 454.6M1195 408.336L1193 411.8L1195 415.264M1289.85 408.336L1291.85 411.8L1289.85 415.264M1215.72 372.464L1217.72 369L1221.72 369M1215.72 451.136L1217.72 454.6L1221.72 454.6" stroke="#EF1E1E"/>
<path id="Vector_258" d="M1190.15 326.464L1188.15 323L1184.15 323M1190.15 405.136L1188.15 408.6L1184.15 408.6M1116.01 362.336L1114.01 365.8L1116.01 369.264M1210.86 362.336L1212.86 365.8L1210.86 369.264M1136.73 326.464L1138.73 323L1142.73 323M1136.73 405.136L1138.73 408.6L1142.73 408.6" stroke="#EF1E1E"/>
<path id="Vector_259" d="M1269.14 464.464L1267.14 461L1263.14 461M1269.14 543.136L1267.14 546.6L1263.14 546.6M1195 500.336L1193 503.8L1195 507.264M1289.85 500.336L1291.85 503.8L1289.85 507.264M1215.72 464.464L1217.72 461L1221.72 461M1215.72 543.136L1217.72 546.6L1221.72 546.6" stroke="#EF1E1E"/>
<path id="Vector_260" d="M1190.17 418.464L1188.17 415L1184.17 415M1190.17 497.136L1188.17 500.6L1184.17 500.6M1116.03 454.336L1114.03 457.8L1116.03 461.264M1210.88 454.336L1212.88 457.8L1210.88 461.264M1136.75 418.464L1138.75 415L1142.75 415M1136.75 497.136L1138.75 500.6L1142.75 500.6" stroke="#EF1E1E"/>
<path id="Vector_261" d="M1269.14 189.464L1267.14 186L1263.14 186M1269.14 268.136L1267.14 271.6L1263.14 271.6M1195 225.336L1193 228.8L1195 232.264M1289.85 225.336L1291.85 228.8L1289.85 232.264M1215.72 189.464L1217.72 186L1221.72 186M1215.72 268.136L1217.72 271.6L1221.72 271.6" stroke="#EF1E1E"/>
<path id="Vector_262" d="M1190.14 143.464L1188.14 140L1184.14 140M1190.14 222.136L1188.14 225.6L1184.14 225.6M1116.01 179.336L1114.01 182.8L1116.01 186.264M1210.85 179.336L1212.85 182.8L1210.85 186.264M1136.72 143.464L1138.72 140L1142.72 140M1136.73 222.136L1138.73 225.6L1142.73 225.6" stroke="#EF1E1E"/>
<path id="Vector_263" d="M1269.14 281.464L1267.14 278L1263.14 278M1269.14 360.136L1267.14 363.6L1263.14 363.6M1195 317.336L1193 320.8L1195 324.264M1289.85 317.336L1291.85 320.8L1289.85 324.264M1215.72 281.464L1217.72 278L1221.72 278M1215.72 360.136L1217.72 363.6L1221.72 363.6" stroke="#EF1E1E"/>
<path id="Vector_264" d="M1190.17 235.464L1188.17 232L1184.17 232M1190.16 314.136L1188.16 317.6L1184.16 317.6M1116.03 271.336L1114.03 274.8L1116.03 278.264M1210.87 271.336L1212.87 274.8L1210.87 278.264M1136.75 235.464L1138.75 232L1142.75 232M1136.75 314.136L1138.75 317.6L1142.75 317.6" stroke="#EF1E1E"/>
<path id="Vector_265" d="M1269.14 738.464L1267.14 735L1263.14 735M1269.14 817.136L1267.14 820.6L1263.14 820.6M1195 774.336L1193 777.8L1195 781.264M1289.85 774.336L1291.85 777.8L1289.85 781.264M1215.72 738.464L1217.72 735L1221.72 735M1215.72 817.136L1217.72 820.6L1221.72 820.6" stroke="#EF1E1E"/>
<path id="Vector_266" d="M1190.15 692.464L1188.15 689L1184.15 689M1190.15 771.136L1188.15 774.6L1184.15 774.6M1116.02 728.336L1114.02 731.8L1116.02 735.264M1210.86 728.336L1212.86 731.8L1210.86 735.264M1136.73 692.464L1138.73 689L1142.73 689M1136.74 771.136L1138.74 774.6L1142.74 774.6" stroke="#EF1E1E"/>
<path id="Vector_267" d="M1190.17 784.464L1188.17 781L1184.17 781M1190.17 863.136L1188.17 866.6L1184.17 866.6M1116.04 820.336L1114.04 823.8L1116.04 827.264M1210.88 820.336L1212.88 823.8L1210.88 827.264M1136.75 784.464L1138.75 781L1142.75 781M1136.76 863.136L1138.76 866.6L1142.76 866.6" stroke="#EF1E1E"/>
<path id="Vector_268" d="M1269.14 555.464L1267.14 552L1263.14 552M1269.14 634.136L1267.14 637.6L1263.14 637.6M1195 591.336L1193 594.8L1195 598.264M1289.85 591.336L1291.85 594.8L1289.85 598.264M1215.72 555.464L1217.72 552L1221.72 552M1215.72 634.136L1217.72 637.6L1221.72 637.6" stroke="#EF1E1E"/>
<path id="Vector_269" d="M1190.15 509.464L1188.15 506L1184.15 506M1190.15 588.136L1188.15 591.6L1184.15 591.6M1116.01 545.336L1114.01 548.8L1116.01 552.264M1210.86 545.336L1212.86 548.8L1210.86 552.264M1136.73 509.464L1138.73 506L1142.73 506M1136.73 588.136L1138.73 591.6L1142.73 591.6" stroke="#EF1E1E"/>
<path id="Vector_270" d="M1269.14 647.464L1267.14 644L1263.14 644M1269.14 726.136L1267.14 729.6L1263.14 729.6M1195 683.336L1193 686.8L1195 690.264M1289.85 683.336L1291.85 686.8L1289.85 690.264M1215.72 647.464L1217.72 644L1221.72 644M1215.72 726.136L1217.72 729.6L1221.72 729.6" stroke="#EF1E1E"/>
<path id="Vector_271" d="M1190.17 601.464L1188.17 598L1184.17 598M1190.17 680.136L1188.17 683.6L1184.17 683.6M1116.03 637.336L1114.03 640.8L1116.03 644.264M1210.88 637.336L1212.88 640.8L1210.88 644.264M1136.75 601.464L1138.75 598L1142.75 598M1136.75 680.136L1138.75 683.6L1142.75 683.6" stroke="#EF1E1E"/>
<g id="react-icons/im/ImTab">
<path id="Vector_272" d="M160.125 393H164V415.5H160.125V393Z" fill="white"/>
<path id="Vector_273" d="M102 415.5H105.875V438H102V415.5Z" fill="white"/>
<path id="Vector_274" d="M121.375 423.938H164V429.562H121.375V436.594L107.812 426.75L121.375 416.906V423.938Z" fill="white"/>
<path id="Vector_275" d="M144.625 407.062H102V401.438H144.625V394.406L158.188 404.25L144.625 414.094V407.062Z" fill="white"/>
</g>
<g id="react-icons/im/ImTarget">
<path id="Vector_276" d="M320 683.125H313.889C312.215 672.333 303.667 663.785 292.875 662.111V656H285.125V662.111C274.333 663.785 265.785 672.333 264.111 683.125H258V690.875H264.111C265.785 701.667 274.333 710.215 285.125 711.889V718H292.875V711.889C303.667 710.215 312.215 701.667 313.889 690.875H320V683.125ZM306.003 683.125H299.962C298.796 679.824 296.176 677.204 292.875 676.038V669.996C299.385 671.481 304.519 676.615 306.003 683.125ZM289 690.875C286.861 690.875 285.125 689.139 285.125 687C285.125 684.861 286.861 683.125 289 683.125C291.139 683.125 292.875 684.861 292.875 687C292.875 689.139 291.139 690.875 289 690.875ZM285.125 669.996V676.038C281.824 677.204 279.204 679.824 278.038 683.125H271.996C273.481 676.615 278.615 671.481 285.125 669.996ZM271.996 690.875H278.038C279.204 694.176 281.824 696.796 285.125 697.962V704.003C278.615 702.519 273.481 697.385 271.996 690.875ZM292.875 704.003V697.962C296.176 696.796 298.796 694.176 299.962 690.875H306.003C304.519 697.385 299.385 702.519 292.875 704.003Z" fill="white"/>
</g>
<g id="react-icons/im/ImSpinner8">
<path id="Vector_277" d="M606 443C597.719 443 589.934 439.776 584.079 433.921C578.224 428.066 575 420.281 575 412C575 406.137 576.647 400.429 579.759 395.489C582.785 390.688 587.063 386.809 592.131 384.271L594.735 389.467C590.616 391.532 587.136 394.687 584.676 398.589C582.149 402.595 580.812 407.234 580.812 412C580.812 425.888 592.112 437.188 606 437.188C619.888 437.188 631.188 425.888 631.188 412C631.188 407.234 629.851 402.599 627.324 398.589C624.864 394.683 621.384 391.528 617.265 389.467L619.869 384.271C624.937 386.809 629.215 390.688 632.242 395.489C635.353 400.425 637 406.137 637 412C637 420.281 633.776 428.066 627.921 433.921C622.066 439.776 614.281 443 606 443Z" fill="white"/>
</g>
</g>
</svg>
