<svg id="f146ec19-8700-4b1f-9591-c3417e2c9fb8" data-name="Layer 1" xmlns="http://www.w3.org/2000/svg" viewBox="0 0 1280 768"><title>HudCircle</title><path d="M635,719c-147.3,0-266.5-30.86-266.5-69S487.7,581,635,581s266.5,30.86,266.5,69S782.3,719,635,719Zm222.08-69c0-31.78-99.33-57.5-222.08-57.5S412.92,618.22,412.92,650,512.25,707.5,635,707.5,857.08,681.78,857.08,650ZM635,696c-98.2,0-177.67-20.57-177.67-46S536.8,604,635,604s177.67,20.57,177.67,46S733.2,696,635,696Zm133.25-46c0-19.07-59.6-34.5-133.25-34.5S501.75,630.93,501.75,650s59.6,34.5,133.25,34.5S768.25,669.07,768.25,650ZM635,673c-49.1,0-88.83-10.29-88.83-23S585.9,627,635,627s88.83,10.29,88.83,23S684.1,673,635,673Zm44.42-23c0-6.36-19.87-11.5-44.42-11.5s-44.42,5.14-44.42,11.5,19.87,11.5,44.42,11.5S679.42,656.36,679.42,650Z" style="fill:#dadada"/><line x1="635" y1="650" x2="888.46" y2="671.32" style="fill:#dadada"/><line x1="635" y1="650" x2="791.64" y2="594.18" style="fill:#dadada"/><line x1="635" y1="650" x2="478.36" y2="594.18" style="fill:#dadada"/><line x1="635" y1="650" x2="381.54" y2="671.32" style="fill:#dadada"/></svg>