<svg width="1294" height="1006" viewBox="0 0 1294 1006" fill="none" xmlns="http://www.w3.org/2000/svg">
<g id="RetainingRings">
<path id="Vector_2" d="M79.6705 502.8L104.38 545.6H153.8L178.51 502.8L153.8 460H104.38L79.6705 502.8Z" fill="#304855" stroke="white"/>
<g id="Subtract">
<path d="M128.142 466.763C125.578 466.83 123.081 467.164 120.678 467.738L122.643 475.074C124.418 474.663 126.257 474.418 128.142 474.356V466.763Z" fill="#B1CBDA"/>
<path d="M135.538 475.074C133.763 474.663 131.924 474.418 130.039 474.356V466.763C132.603 466.83 135.1 467.164 137.503 467.738L135.538 475.074Z" fill="#B1CBDA"/>
<path d="M142.494 477.688C140.873 476.821 139.159 476.107 137.371 475.564L139.336 468.228C141.772 468.949 144.1 469.92 146.291 471.111L142.494 477.688Z" fill="#B1CBDA"/>
<path d="M148.533 482.016C147.183 480.754 145.711 479.621 144.136 478.638L147.933 472.062C150.082 473.382 152.082 474.921 153.901 476.648L148.533 482.016Z" fill="#B1CBDA"/>
<path d="M153.253 487.755C152.27 486.179 151.137 484.707 149.874 483.358L155.243 477.989C156.97 479.809 158.509 481.809 159.829 483.958L153.253 487.755Z" fill="#B1CBDA"/>
<path d="M156.327 494.52C155.784 492.731 155.069 491.017 154.203 489.397L160.779 485.6C161.971 487.791 162.942 490.119 163.662 492.554L156.327 494.52Z" fill="#B1CBDA"/>
<path d="M157.535 501.851C157.473 499.967 157.228 498.128 156.817 496.353L164.152 494.387C164.727 496.791 165.061 499.288 165.127 501.851H157.535Z" fill="#B1CBDA"/>
<path d="M156.817 509.247C157.228 507.472 157.473 505.634 157.535 503.749H165.127C165.061 506.312 164.727 508.809 164.152 511.213L156.817 509.247Z" fill="#B1CBDA"/>
<path d="M154.203 516.203C155.069 514.583 155.784 512.869 156.327 511.08L163.662 513.046C162.942 515.481 161.971 517.809 160.779 520L154.203 516.203Z" fill="#B1CBDA"/>
<path d="M149.874 522.242C151.137 520.893 152.27 519.421 153.253 517.845L159.829 521.642C158.509 523.791 156.97 525.791 155.243 527.611L149.874 522.242Z" fill="#B1CBDA"/>
<path d="M144.136 526.962C145.711 525.979 147.183 524.846 148.533 523.584L153.901 528.952C152.081 530.679 150.082 532.218 147.933 533.538L144.136 526.962Z" fill="#B1CBDA"/>
<path d="M137.371 530.036C139.159 529.493 140.873 528.779 142.494 527.912L146.291 534.489C144.1 535.68 141.772 536.651 139.336 537.372L137.371 530.036Z" fill="#B1CBDA"/>
<path d="M130.039 531.244C131.924 531.182 133.763 530.937 135.538 530.526L137.503 537.862C135.1 538.436 132.603 538.77 130.039 538.836V531.244Z" fill="#B1CBDA"/>
<path d="M122.643 530.526C124.418 530.937 126.257 531.182 128.142 531.244V538.836C125.578 538.77 123.081 538.436 120.678 537.862L122.643 530.526Z" fill="#B1CBDA"/>
<path d="M115.688 527.912C117.308 528.779 119.022 529.493 120.811 530.036L118.845 537.372C116.409 536.651 114.081 535.68 111.891 534.489L115.688 527.912Z" fill="#B1CBDA"/>
<path d="M109.649 523.584C110.998 524.846 112.47 525.979 114.045 526.962L110.248 533.538C108.1 532.218 106.1 530.679 104.28 528.952L109.649 523.584Z" fill="#B1CBDA"/>
<path d="M104.929 517.845C105.912 519.421 107.044 520.893 108.307 522.242L102.938 527.611C101.211 525.791 99.6722 523.791 98.3521 521.642L104.929 517.845Z" fill="#B1CBDA"/>
<path d="M101.854 511.08C102.397 512.869 103.112 514.583 103.978 516.203L97.4019 520C96.2103 517.809 95.2393 515.481 94.5186 513.046L101.854 511.08Z" fill="#B1CBDA"/>
<path d="M100.647 503.749C100.708 505.634 100.953 507.472 101.364 509.247L94.0286 511.213C93.4541 508.809 93.1202 506.312 93.054 503.749H100.647Z" fill="#B1CBDA"/>
<path d="M101.364 496.353C100.953 498.128 100.708 499.967 100.647 501.851H93.054C93.1202 499.288 93.454 496.791 94.0286 494.387L101.364 496.353Z" fill="#B1CBDA"/>
<path d="M103.978 489.397C103.112 491.017 102.397 492.731 101.854 494.52L94.5185 492.554C95.2392 490.119 96.2102 487.791 97.4018 485.6L103.978 489.397Z" fill="#B1CBDA"/>
<path d="M108.307 483.358C107.044 484.707 105.912 486.179 104.929 487.755L98.352 483.958C99.6721 481.809 101.211 479.809 102.938 477.989L108.307 483.358Z" fill="#B1CBDA"/>
<path d="M114.045 478.638C112.47 479.621 110.998 480.754 109.649 482.016L104.28 476.648C106.1 474.921 108.099 473.382 110.248 472.062L114.045 478.638Z" fill="#B1CBDA"/>
<path d="M120.811 475.564C119.022 476.107 117.308 476.821 115.687 477.688L111.891 471.111C114.081 469.92 116.409 468.949 118.845 468.228L120.811 475.564Z" fill="#B1CBDA"/>
</g>
<g id="Vector_3">
<path d="M85.2914 505.205L80.2031 502.8L104.866 545.541H106.335L96.2761 528.609L96.707 525.654L85.2914 505.205Z" fill="#B1CBDA"/>
<path d="M153.032 539.523L153.493 545.132L178.176 502.403L177.442 501.131L167.808 518.308L165.033 519.413L153.032 539.523Z" fill="#B1CBDA"/>
<path d="M148.9 463.71L153.527 460.506L104.181 460.495L103.446 461.767L123.139 461.522L125.483 463.372L148.9 463.71Z" fill="#B1CBDA"/>
</g>
<path id="Vector_4" d="M129.09 523.3C123.614 523.3 118.466 521.168 114.594 517.296C110.722 513.424 108.59 508.276 108.59 502.8C108.59 498.923 109.68 495.148 111.737 491.881C113.739 488.706 116.568 486.141 119.919 484.463L121.641 487.899C118.917 489.265 116.616 491.351 114.989 493.931C113.318 496.581 112.434 499.648 112.434 502.8C112.434 511.984 119.906 519.456 129.09 519.456C138.274 519.456 145.747 511.984 145.747 502.8C145.747 499.648 144.863 496.583 143.192 493.931C141.565 491.348 139.264 489.262 136.54 487.899L138.262 484.463C141.613 486.141 144.442 488.706 146.444 491.881C148.501 495.146 149.59 498.923 149.59 502.8C149.59 508.276 147.458 513.424 143.587 517.296C139.715 521.168 134.567 523.3 129.09 523.3Z" fill="#B1CBDA"/>
</g>
</svg>
