<svg id="bb9dba83-6b91-4981-833a-bae920e80f50" data-name="Layer 1" xmlns="http://www.w3.org/2000/svg" viewBox="0 0 1280 768"><path d="M-18.85-144.07C173-6.16,400.39,59.77,635.57,59.77c235.8,0,459.19-69.14,653.13-203.84q0,442.77,0,885.55C1097.42,601.33,875,519.22,636.85,519.21c-238.38,0-467.1,78.33-657,222.27C-20,446.25-18.81,151.09-18.85-144.07Z" fill="none" stroke="white"/><path d="M-20.08,699.43c194.33-132,422.25-200,656.86-200,234.07,0,457.06,71,651.92,200.1" fill="none" stroke="white"/><path d="M-20,659.9c396.68-241.65,911.06-240,1308.68-2.06" fill="none" stroke="white"/><path d="M-19.84,618.2c394.36-217.92,913.49-217.46,1308.54-1.79" fill="none" stroke="white"/><path d="M-19.66,575.42c411.74-187.73,896.54-187.56,1308.37-.26" fill="none" stroke="white"/><path d="M-19.47,532.84c210.05-75,431.62-119.47,655.13-119.43,222.69,0,443.94,45.61,653.05,120.59" fill="none" stroke="white"/><path d="M-19.28,491.35c213.6-56.22,433-97.62,654.57-97.57,221.1.05,440.43,42.74,653.43,99.07" fill="none" stroke="white"/><path d="M-19.1,449.81c216.16-37.44,433.94-76.07,654.05-76s437.74,40.38,653.77,77.84" fill="none" stroke="white"/><path d="M-19,408.16c216.85-27.77,434.66-53.91,653.61-53.93s438,21.84,654.08,56" fill="none" stroke="white"/><path d="M-18.86,366.37C198.63,351,416.23,332.59,634.43,332.52c218.45-.07,437.21,11.59,654.29,36.08" fill="none" stroke="white"/><path d="M-18.83,324.39c435.21-11,872.66-25.46,1307.55,2.28" fill="none" stroke="white"/><path d="M-20.09,276.47c218.08,6.35,436.2,12.69,654.4,12.62s436.22-12,654.42-13.78" fill="none" stroke="white"/><path d="M-20.09,234.42c217.92,14.46,435.91,31.85,654.46,31.89s436.85-13.06,654.34-33" fill="none" stroke="white"/><path d="M-20.09,192.61c216.78,31.53,435.36,52,654.57,51.92,219,0,437.68-21.78,654.24-53" fill="none" stroke="white"/><path d="M-20.09,150.92C197,182.71,414.45,223,634.63,223.07c219.88,0,438-35.77,654.08-73" fill="none" stroke="white"/><path d="M-20.1,109.37C195.71,153.36,413.41,202,634.8,202c221,0,438.92-47.11,653.91-93.41" fill="none" stroke="white"/><path d="M-19.46,68.18c212.84,60.64,432,112,654.58,112,222.08,0,441.62-50.72,653.59-112.92" fill="none" stroke="white"/><path d="M-18.27,27.24c209,76.71,429.9,131.39,653.72,131.35,223.53,0,444.83-55.23,653.26-132.59" fill="none" stroke="white"/><path d="M-17.56-14C187.9,77.59,409.62,133.72,635.37,133.69s447.81-58,653.33-149.07" fill="none" stroke="white"/><path d="M-18.83-56.78c202.29,104.22,425.92,164,654,164,228,0,451-61.08,653.49-164.11" fill="none" stroke="white"/><path d="M-18.84-97.43C378,145.8,892.45,135.59,1288.7-102.08" fill="none" stroke="white"/><path d="M1227-103.36q3.68,401,0,801.75" fill="none" stroke="white"/><path d="M1165.05-67.85q6,364.4.12,728.3" fill="none" stroke="white"/><path d="M1103-37.27c4.7,221.78,5.42,443,.25,664.73" fill="none" stroke="white"/><path d="M1040.85-11.38c4.67,203.58,6.87,407.07.41,610.61" fill="none" stroke="white"/><path d="M978.59,10.07c4.06,188.43,7,377.13.6,565.52" fill="none" stroke="white"/><path d="M916.27,27.32c3,176.13,6.74,352.94.77,529" fill="none" stroke="white"/><path d="M853.9,40.63c1.84,166.71,5.27,334,.94,500.69" fill="none" stroke="white"/><path d="M791.5,50.25c.66,159.92,3.6,320.17,1.1,480.07" fill="none" stroke="white"/><path d="M729.11,56.43c-.3,155.56,2,311.17,1.21,466.72" fill="none" stroke="white"/><path d="M666.74,59.4c-.86,153.46,1,306.8,1.27,460.24" fill="none" stroke="white"/><path d="M604.35,59.4c-.83,153.46.92,306.8,1.26,460.24" fill="none" stroke="white"/><path d="M541.56,56.42c0,155.56,1.64,311.18,1.14,466.73" fill="none" stroke="white"/><path d="M478.47,50.25c1.39,159.9,2.78,320.16.91,480.07" fill="none" stroke="white"/><path d="M415.23,40.63c3,166.67,3.91,334,.61,500.69" fill="none" stroke="white"/><path d="M352,27.32c4.51,176.07,4.85,352.93.27,529" fill="none" stroke="white"/><path d="M288.88,10.07c5.75,188.33,4.82,377.14-.09,565.52" fill="none" stroke="white"/><path d="M226.1-11.37c6.44,203.45,4.53,407.09-.45,610.6" fill="none" stroke="white"/><path d="M163.78-37.26c6.41,221.6,3.28,443.05-.77,664.72" fill="none" stroke="white"/><path d="M102.08-67.84c5.45,242.79,2.26,485.44-1,728.29" fill="none" stroke="white"/><path d="M41.15-103.36c3.39,267.23.81,534.46-1.21,801.75" fill="none" stroke="white"/></svg>